M48
;DRILL file {KiCad 4.0.6} date 06/08/18 14:37:21
;FORMAT={-:-/ absolute / inch / decimal}
FMAT,2
INCH,TZ
T1C0.024
%
G90
G05
M72
T1
X5.1248Y-3.1866
X5.148Y-3.5839
X5.1945Y-3.8421
X5.2272Y-3.5831
X5.2756Y-3.2047
X5.478Y-4.0429
X5.5791Y-4.8035
X5.5858Y-4.1996
X5.6268Y-3.2071
X5.7303Y-3.2087
X5.7331Y-4.8091
X5.8661Y-4.1732
X5.8898Y-4.6839
X5.9441Y-3.2768
X5.9917Y-4.4362
X6.0075Y-3.6902
X6.0102Y-3.7673
X6.063Y-3.874
X6.0795Y-3.1988
X6.0984Y-4.2185
X6.189Y-4.6154
X6.2008Y-4.7531
X6.2579Y-4.4516
X6.2701Y-4.8047
X6.428Y-3.2043
X6.5689Y-3.7575
X6.6209Y-3.8209
X6.6299Y-4.0512
X6.6496Y-4.5
X6.6638Y-3.3957
X6.798Y-3.2858
X6.9827Y-4.7669
X7.035Y-3.2862
X7.0795Y-4.1295
X7.2209Y-3.1374
X7.2614Y-4.213
X7.2717Y-4.4213
X7.3441Y-3.4728
X7.3457Y-3.6736
T0
M30
