M48
;DRILL file {KiCad 4.0.6} date 06/08/18 14:37:21
;FORMAT={-:-/ absolute / inch / decimal}
FMAT,2
INCH,TZ
T1C0.038
T2C0.070
T3C0.108
%
G90
G05
M72
T1
X5.228Y-2.9551
X5.228Y-3.0551
X5.328Y-2.9551
X5.328Y-3.0551
X5.428Y-2.9551
X5.428Y-3.0551
X5.528Y-2.9551
X5.528Y-3.0551
X5.628Y-2.9551
X5.628Y-3.0551
X5.728Y-2.9551
X5.728Y-3.0551
X5.828Y-2.9551
X5.828Y-3.0551
X5.928Y-2.9551
X5.928Y-3.0551
X6.028Y-2.9551
X6.028Y-3.0551
X6.128Y-2.9551
X6.128Y-3.0551
X6.228Y-2.9551
X6.228Y-3.0551
X6.328Y-2.9551
X6.328Y-3.0551
X6.428Y-2.9551
X6.428Y-3.0551
X6.528Y-2.9551
X6.528Y-3.0551
X6.628Y-2.9551
X6.628Y-3.0551
X6.728Y-2.9551
X6.728Y-3.0551
X6.828Y-2.9551
X6.828Y-3.0551
X6.928Y-2.9551
X6.928Y-3.0551
X7.028Y-2.9551
X7.028Y-3.0551
X7.128Y-2.9551
X7.128Y-3.0551
T2
X5.278Y-3.0051
X7.078Y-3.0051
T3
X5.0386Y-3.0059
X5.0394Y-4.9346
X7.3224Y-3.0055
X7.3224Y-4.935
T0
M30
