G04 #@! TF.FileFunction,Paste,Bot*
%FSLAX46Y46*%
G04 Gerber Fmt 4.6, Leading zero omitted, Abs format (unit mm)*
G04 Created by KiCad (PCBNEW 4.0.6) date 06/08/18 14:37:17*
%MOMM*%
%LPD*%
G01*
G04 APERTURE LIST*
%ADD10C,0.100000*%
%ADD11R,1.020000X1.780000*%
G04 APERTURE END LIST*
D10*
D11*
X173430000Y-73412200D03*
X175970000Y-73412200D03*
X181050000Y-73412200D03*
X178510000Y-73412200D03*
X153110000Y-73412200D03*
X155650000Y-73412200D03*
X160730000Y-73412200D03*
X158190000Y-73412200D03*
X168350000Y-73412200D03*
X170890000Y-73412200D03*
X165810000Y-73412200D03*
X163270000Y-73412200D03*
X142950000Y-73412200D03*
X145490000Y-73412200D03*
X150570000Y-73412200D03*
X148030000Y-73412200D03*
X137870000Y-73412200D03*
X140410000Y-73412200D03*
X135330000Y-73412200D03*
X132790000Y-73412200D03*
X181050000Y-79247800D03*
X178510000Y-79247800D03*
X173430000Y-79247800D03*
X175970000Y-79247800D03*
X165810000Y-79247800D03*
X163270000Y-79247800D03*
X168350000Y-79247800D03*
X170890000Y-79247800D03*
X160730000Y-79247800D03*
X158190000Y-79247800D03*
X153110000Y-79247800D03*
X155650000Y-79247800D03*
X135330000Y-79247800D03*
X132790000Y-79247800D03*
X137870000Y-79247800D03*
X140410000Y-79247800D03*
X150570000Y-79247800D03*
X148030000Y-79247800D03*
X142950000Y-79247800D03*
X145490000Y-79247800D03*
M02*
