G04 #@! TF.FileFunction,Soldermask,Bot*
%FSLAX46Y46*%
G04 Gerber Fmt 4.6, Leading zero omitted, Abs format (unit mm)*
G04 Created by KiCad (PCBNEW 4.0.6) date 06/08/18 14:37:17*
%MOMM*%
%LPD*%
G01*
G04 APERTURE LIST*
%ADD10C,0.100000*%
%ADD11C,6.200000*%
%ADD12R,1.420000X2.180000*%
%ADD13C,1.365200*%
%ADD14C,2.178000*%
G04 APERTURE END LIST*
D10*
D11*
X127980000Y-76350000D03*
X185990000Y-76340000D03*
X185990000Y-125350000D03*
X128000000Y-125340000D03*
D12*
X173430000Y-73412200D03*
X175970000Y-73412200D03*
X181050000Y-73412200D03*
X178510000Y-73412200D03*
X153110000Y-73412200D03*
X155650000Y-73412200D03*
X160730000Y-73412200D03*
X158190000Y-73412200D03*
X168350000Y-73412200D03*
X170890000Y-73412200D03*
X165810000Y-73412200D03*
X163270000Y-73412200D03*
X142950000Y-73412200D03*
X145490000Y-73412200D03*
X150570000Y-73412200D03*
X148030000Y-73412200D03*
X137870000Y-73412200D03*
X140410000Y-73412200D03*
X135330000Y-73412200D03*
X132790000Y-73412200D03*
X181050000Y-79247800D03*
X178510000Y-79247800D03*
X173430000Y-79247800D03*
X175970000Y-79247800D03*
X165810000Y-79247800D03*
X163270000Y-79247800D03*
X168350000Y-79247800D03*
X170890000Y-79247800D03*
X160730000Y-79247800D03*
X158190000Y-79247800D03*
X153110000Y-79247800D03*
X155650000Y-79247800D03*
X135330000Y-79247800D03*
X132790000Y-79247800D03*
X137870000Y-79247800D03*
X140410000Y-79247800D03*
X150570000Y-79247800D03*
X148030000Y-79247800D03*
D13*
X160730000Y-77600000D03*
X158190000Y-77600000D03*
X163270000Y-77600000D03*
X165810000Y-77600000D03*
X175970000Y-77600000D03*
X173430000Y-77600000D03*
X168350000Y-77600000D03*
X170890000Y-77600000D03*
X178510000Y-77600000D03*
X181050000Y-77600000D03*
X155650000Y-77600000D03*
X153110000Y-77600000D03*
X145490000Y-77600000D03*
X142950000Y-77600000D03*
X148030000Y-77600000D03*
X150570000Y-77600000D03*
X140410000Y-77600000D03*
X137870000Y-77600000D03*
X132790000Y-77600000D03*
X135330000Y-77600000D03*
X135330000Y-75060000D03*
X132790000Y-75060000D03*
X137870000Y-75060000D03*
X140410000Y-75060000D03*
X150570000Y-75060000D03*
X148030000Y-75060000D03*
X142950000Y-75060000D03*
X145490000Y-75060000D03*
X153110000Y-75060000D03*
X155650000Y-75060000D03*
X181050000Y-75060000D03*
X178510000Y-75060000D03*
X170890000Y-75060000D03*
X168350000Y-75060000D03*
X173430000Y-75060000D03*
X175970000Y-75060000D03*
X165810000Y-75060000D03*
X163270000Y-75060000D03*
X158190000Y-75060000D03*
X160730000Y-75060000D03*
D12*
X142950000Y-79247800D03*
X145490000Y-79247800D03*
D14*
X134060000Y-76330000D03*
X179780000Y-76330000D03*
M02*
