G04 #@! TF.FileFunction,Paste,Top*
%FSLAX46Y46*%
G04 Gerber Fmt 4.6, Leading zero omitted, Abs format (unit mm)*
G04 Created by KiCad (PCBNEW 4.0.6) date 06/08/18 14:37:17*
%MOMM*%
%LPD*%
G01*
G04 APERTURE LIST*
%ADD10C,0.100000*%
%ADD11R,1.250000X1.000000*%
%ADD12R,1.000000X1.600000*%
%ADD13R,1.000000X1.250000*%
%ADD14R,3.390000X2.500000*%
%ADD15R,3.500000X1.600000*%
%ADD16R,1.550000X0.600000*%
%ADD17R,3.510000X2.620000*%
%ADD18R,0.610000X1.600000*%
%ADD19R,1.500000X0.600000*%
%ADD20R,2.350000X3.400000*%
%ADD21R,0.900000X0.800000*%
%ADD22R,1.300000X0.700000*%
%ADD23R,0.700000X1.300000*%
%ADD24R,0.800000X0.900000*%
%ADD25R,2.000000X0.600000*%
%ADD26R,4.500000X2.000000*%
%ADD27R,3.000000X5.000000*%
%ADD28R,5.000000X3.000000*%
%ADD29R,1.270000X3.180000*%
G04 APERTURE END LIST*
D10*
D11*
X141868000Y-114488000D03*
X141868000Y-112488000D03*
X149996000Y-114488000D03*
X149996000Y-112488000D03*
D12*
X137040000Y-97790000D03*
X140040000Y-97790000D03*
X137040000Y-100490000D03*
X140040000Y-100490000D03*
D13*
X138540000Y-85990000D03*
X140540000Y-85990000D03*
D11*
X133980000Y-97400000D03*
X133980000Y-95400000D03*
D12*
X147540000Y-95490000D03*
X144540000Y-95490000D03*
D13*
X164800000Y-84400000D03*
X166800000Y-84400000D03*
X156800000Y-84400000D03*
X154800000Y-84400000D03*
D11*
X185200000Y-85400000D03*
X185200000Y-83400000D03*
X154800000Y-96000000D03*
X154800000Y-94000000D03*
X169990000Y-110010000D03*
X169990000Y-112010000D03*
D14*
X129800000Y-119510000D03*
X129800000Y-112690000D03*
D15*
X136400000Y-107960000D03*
X136400000Y-112840000D03*
D16*
X164200000Y-106605000D03*
X164200000Y-105335000D03*
X164200000Y-104065000D03*
X164200000Y-102795000D03*
X157100000Y-102795000D03*
X157100000Y-104065000D03*
X157100000Y-105335000D03*
X157100000Y-106605000D03*
D17*
X137860000Y-92120000D03*
D18*
X135955000Y-89120000D03*
X137225000Y-89120000D03*
X138495000Y-89120000D03*
X139765000Y-89120000D03*
X139765000Y-95120000D03*
X138495000Y-95120000D03*
X137225000Y-95120000D03*
X135955000Y-95120000D03*
D19*
X172850000Y-108555000D03*
X172850000Y-109825000D03*
X172850000Y-111095000D03*
X172850000Y-112365000D03*
X172850000Y-113635000D03*
X172850000Y-114905000D03*
X172850000Y-116175000D03*
X172850000Y-117445000D03*
X182150000Y-117445000D03*
X182150000Y-116175000D03*
X182150000Y-114905000D03*
X182150000Y-113635000D03*
X182150000Y-112365000D03*
X182150000Y-111095000D03*
X182150000Y-109825000D03*
X182150000Y-108555000D03*
D20*
X149565000Y-100790000D03*
X143515000Y-100790000D03*
D21*
X150000000Y-108450000D03*
X150000000Y-110350000D03*
X152000000Y-109400000D03*
D22*
X143800000Y-108450000D03*
X143800000Y-110350000D03*
D23*
X147950000Y-108400000D03*
X146050000Y-108400000D03*
X156150000Y-109400000D03*
X154250000Y-109400000D03*
X135390000Y-86040000D03*
X133490000Y-86040000D03*
X143590000Y-86040000D03*
X145490000Y-86040000D03*
X153270000Y-105160000D03*
X151370000Y-105160000D03*
X143590000Y-89040000D03*
X145490000Y-89040000D03*
X145490000Y-91790000D03*
X143590000Y-91790000D03*
X162450000Y-109000000D03*
X164350000Y-109000000D03*
X182160000Y-83310000D03*
X180260000Y-83310000D03*
D22*
X168400000Y-99250000D03*
X168400000Y-101150000D03*
D23*
X158250000Y-99400000D03*
X160150000Y-99400000D03*
X165850000Y-93400000D03*
X167750000Y-93400000D03*
D22*
X153400000Y-120950000D03*
X153400000Y-119050000D03*
X182200000Y-102050000D03*
X182200000Y-103950000D03*
X185800000Y-102050000D03*
X185800000Y-103950000D03*
D24*
X146882000Y-112996000D03*
X144982000Y-112996000D03*
X145932000Y-114996000D03*
D25*
X172900000Y-85620000D03*
X172900000Y-86890000D03*
X172900000Y-88160000D03*
X172900000Y-89430000D03*
X172900000Y-90700000D03*
X172900000Y-91970000D03*
X172900000Y-93240000D03*
X172900000Y-94510000D03*
X172900000Y-95780000D03*
X182300000Y-95780000D03*
X182300000Y-94510000D03*
X182300000Y-93240000D03*
X182300000Y-91970000D03*
X182300000Y-90700000D03*
X182300000Y-89430000D03*
X182300000Y-88160000D03*
X182300000Y-86890000D03*
X182300000Y-85620000D03*
D16*
X158100000Y-93495000D03*
X158100000Y-94765000D03*
X158100000Y-96035000D03*
X158100000Y-97305000D03*
X163500000Y-97305000D03*
X163500000Y-96035000D03*
X163500000Y-94765000D03*
X163500000Y-93495000D03*
D26*
X156550000Y-88200000D03*
X165050000Y-88200000D03*
D27*
X136300000Y-126100000D03*
X143900000Y-126100000D03*
D28*
X127100000Y-88000000D03*
D27*
X140100000Y-126100000D03*
X155300000Y-126100000D03*
X151500000Y-126100000D03*
D28*
X127100000Y-84200000D03*
D29*
X166500000Y-118100000D03*
X166500000Y-114290000D03*
X163960000Y-118100000D03*
X163960000Y-114290000D03*
X161420000Y-118100000D03*
X161420000Y-114290000D03*
M02*
