G04 #@! TF.FileFunction,Copper,L2,Bot,Signal*
%FSLAX46Y46*%
G04 Gerber Fmt 4.6, Leading zero omitted, Abs format (unit mm)*
G04 Created by KiCad (PCBNEW 4.0.6) date 04/20/18 14:54:16*
%MOMM*%
%LPD*%
G01*
G04 APERTURE LIST*
%ADD10C,0.100000*%
%ADD11R,1.020000X1.780000*%
%ADD12C,1.500000*%
%ADD13C,0.400000*%
%ADD14C,1.000000*%
%ADD15C,0.800000*%
%ADD16C,0.254000*%
G04 APERTURE END LIST*
D10*
D11*
X173430000Y-73412200D03*
X175970000Y-73412200D03*
X181050000Y-73412200D03*
X178510000Y-73412200D03*
X153110000Y-73412200D03*
X155650000Y-73412200D03*
X160730000Y-73412200D03*
X158190000Y-73412200D03*
X168350000Y-73412200D03*
X170890000Y-73412200D03*
X165810000Y-73412200D03*
X163270000Y-73412200D03*
X142950000Y-73412200D03*
X145490000Y-73412200D03*
X150570000Y-73412200D03*
X148030000Y-73412200D03*
X137870000Y-73412200D03*
X140410000Y-73412200D03*
X135330000Y-73412200D03*
X132790000Y-73412200D03*
X181050000Y-79247800D03*
X178510000Y-79247800D03*
X173430000Y-79247800D03*
X175970000Y-79247800D03*
X165810000Y-79247800D03*
X163270000Y-79247800D03*
X168350000Y-79247800D03*
X170890000Y-79247800D03*
X160730000Y-79247800D03*
X158190000Y-79247800D03*
X153110000Y-79247800D03*
X155650000Y-79247800D03*
X135330000Y-79247800D03*
X132790000Y-79247800D03*
X137870000Y-79247800D03*
X140410000Y-79247800D03*
X150570000Y-79247800D03*
X148030000Y-79247800D03*
X142950000Y-79247800D03*
X145490000Y-79247800D03*
D12*
X184700000Y-112300000D03*
X149000000Y-106000000D03*
X168400000Y-102900000D03*
X168900000Y-114300000D03*
X130760000Y-91030000D03*
X141710000Y-122010000D03*
X163270000Y-81390000D03*
X183410000Y-79690000D03*
X142920000Y-81460000D03*
X139140000Y-102690000D03*
X131940000Y-97590000D03*
X177360000Y-121080000D03*
X158950000Y-113070000D03*
X130170000Y-80940000D03*
X134000000Y-81400000D03*
X154420000Y-81250000D03*
X184440000Y-107010000D03*
X179820000Y-104890000D03*
X152590000Y-93730000D03*
X145550000Y-81500000D03*
X154900000Y-107150000D03*
X157500000Y-120730000D03*
X169260000Y-86250000D03*
X178690000Y-83470000D03*
X186580000Y-93310000D03*
X172670000Y-83460000D03*
X186540000Y-88210000D03*
X152190000Y-112680000D03*
X159260000Y-122040000D03*
X132770000Y-91010000D03*
X154000000Y-98400000D03*
X145620000Y-122150000D03*
X141880000Y-106670000D03*
X149600000Y-118970000D03*
X166850000Y-95440000D03*
X157200000Y-117230000D03*
X168170000Y-97050000D03*
D13*
X163270000Y-79247800D02*
X163270000Y-81390000D01*
X181050000Y-79247800D02*
X182967800Y-79247800D01*
X182967800Y-79247800D02*
X183410000Y-79690000D01*
X142950000Y-79247800D02*
X142950000Y-81430000D01*
X142950000Y-81430000D02*
X142920000Y-81460000D01*
D14*
X134040000Y-97590000D02*
X131940000Y-97590000D01*
X134040000Y-97590000D02*
X139140000Y-102690000D01*
D13*
X166960000Y-121080000D02*
X177360000Y-121080000D01*
X158950000Y-113070000D02*
X166960000Y-121080000D01*
D15*
X132790000Y-73412200D02*
X135330000Y-73412200D01*
X130170000Y-80940000D02*
X131540000Y-79570000D01*
X131540000Y-79570000D02*
X131540000Y-74662200D01*
X131540000Y-74662200D02*
X132790000Y-73412200D01*
D13*
X132790000Y-79247800D02*
X132790000Y-80190000D01*
X132790000Y-80190000D02*
X134000000Y-81400000D01*
X154420000Y-81250000D02*
X153110000Y-79940000D01*
X153110000Y-79940000D02*
X153110000Y-79247800D01*
X135330000Y-79247800D02*
X135330000Y-80840000D01*
X179130000Y-107010000D02*
X184440000Y-107010000D01*
X178390000Y-106270000D02*
X179130000Y-107010000D01*
X178390000Y-104430000D02*
X178390000Y-106270000D01*
X166040002Y-92080002D02*
X178390000Y-104430000D01*
X148940002Y-92080002D02*
X166040002Y-92080002D01*
X138650000Y-81790000D02*
X148940002Y-92080002D01*
X136280000Y-81790000D02*
X138650000Y-81790000D01*
X135330000Y-80840000D02*
X136280000Y-81790000D01*
X137870000Y-79247800D02*
X137870000Y-80080000D01*
X137870000Y-80080000D02*
X149270000Y-91480000D01*
X149270000Y-91480000D02*
X166410000Y-91480000D01*
X166410000Y-91480000D02*
X179820000Y-104890000D01*
X159260000Y-102790000D02*
X159260000Y-100400000D01*
X159260000Y-100400000D02*
X152590000Y-93730000D01*
X145550000Y-79307800D02*
X145550000Y-81500000D01*
X159260000Y-102790000D02*
X154900000Y-107150000D01*
X145550000Y-79307800D02*
X145490000Y-79247800D01*
X154900000Y-111810000D02*
X154900000Y-107150000D01*
X148250000Y-118460000D02*
X154900000Y-111810000D01*
X148250000Y-119830000D02*
X148250000Y-118460000D01*
X149150000Y-120730000D02*
X148250000Y-119830000D01*
X157500000Y-120730000D02*
X149150000Y-120730000D01*
X155650000Y-79247800D02*
X162652200Y-86250000D01*
X162652200Y-86250000D02*
X169260000Y-86250000D01*
X158190000Y-79247800D02*
X158190000Y-80148530D01*
X176950000Y-84730000D02*
X178690000Y-83470000D01*
X162771470Y-84730000D02*
X176950000Y-84730000D01*
X158190000Y-80148530D02*
X162771470Y-84730000D01*
X163650000Y-82810000D02*
X162600000Y-82810000D01*
X186580000Y-93310000D02*
X186580000Y-90220000D01*
X186580000Y-90220000D02*
X184910000Y-88550000D01*
X184910000Y-88550000D02*
X184910000Y-83100000D01*
X184910000Y-83100000D02*
X184090000Y-82280000D01*
X184090000Y-82280000D02*
X164180000Y-82280000D01*
X164180000Y-82280000D02*
X163650000Y-82810000D01*
X159470000Y-74692200D02*
X158190000Y-73412200D01*
X159470000Y-75780000D02*
X159470000Y-74692200D01*
X160000000Y-76310000D02*
X159470000Y-75780000D01*
X161160000Y-76310000D02*
X160000000Y-76310000D01*
X161890000Y-77040000D02*
X161160000Y-76310000D01*
X161890000Y-82100000D02*
X161890000Y-77040000D01*
X162600000Y-82810000D02*
X161890000Y-82100000D01*
X160730000Y-79247800D02*
X160730000Y-81840000D01*
X172630000Y-83420000D02*
X172670000Y-83460000D01*
X162310000Y-83420000D02*
X172630000Y-83420000D01*
X160730000Y-81840000D02*
X162310000Y-83420000D01*
X162020000Y-74702200D02*
X160730000Y-73412200D01*
X162020000Y-75530000D02*
X162020000Y-74702200D01*
X162860000Y-76370000D02*
X162020000Y-75530000D01*
X163710000Y-76370000D02*
X162860000Y-76370000D01*
X164500000Y-77160000D02*
X163710000Y-76370000D01*
X164500000Y-80490000D02*
X164500000Y-77160000D01*
X165680000Y-81670000D02*
X164500000Y-80490000D01*
X186210000Y-81670000D02*
X165680000Y-81670000D01*
X187600000Y-83060000D02*
X186210000Y-81670000D01*
X187600000Y-87150000D02*
X187600000Y-83060000D01*
X186540000Y-88210000D02*
X187600000Y-87150000D01*
X152190000Y-112430000D02*
X152190000Y-112680000D01*
X147270000Y-117350000D02*
X152190000Y-112430000D01*
X147270000Y-120700000D02*
X147270000Y-117350000D01*
X148610000Y-122040000D02*
X147270000Y-120700000D01*
X159260000Y-122040000D02*
X148610000Y-122040000D01*
X140160000Y-98400000D02*
X132770000Y-91010000D01*
X154000000Y-98400000D02*
X140160000Y-98400000D01*
X145620000Y-122150000D02*
X141880000Y-118410000D01*
X141880000Y-118410000D02*
X141880000Y-106670000D01*
X166790000Y-101780000D02*
X149600000Y-118970000D01*
X166790000Y-95380000D02*
X166790000Y-101780000D01*
X166850000Y-95440000D02*
X166790000Y-95380000D01*
X157200000Y-112270000D02*
X157200000Y-117230000D01*
X168170000Y-101300000D02*
X157200000Y-112270000D01*
X168170000Y-101248530D02*
X168170000Y-101300000D01*
X168170000Y-97050000D02*
X168170000Y-101248530D01*
D16*
G36*
X136933000Y-72932450D02*
X137039750Y-73039200D01*
X137615000Y-73039200D01*
X137615000Y-73019200D01*
X138125000Y-73019200D01*
X138125000Y-73039200D01*
X138700250Y-73039200D01*
X138807000Y-72932450D01*
X138807000Y-72620600D01*
X139566594Y-72620600D01*
X139566594Y-74302200D01*
X139589395Y-74423379D01*
X139661012Y-74534674D01*
X139737763Y-74587116D01*
X139724055Y-74600800D01*
X139600541Y-74898254D01*
X139600260Y-75220333D01*
X139723254Y-75518002D01*
X139950800Y-75745945D01*
X140248254Y-75869459D01*
X140570333Y-75869740D01*
X140868002Y-75746746D01*
X141095945Y-75519200D01*
X141219459Y-75221746D01*
X141219740Y-74899667D01*
X141096746Y-74601998D01*
X141081581Y-74586807D01*
X141152474Y-74541188D01*
X141227138Y-74431914D01*
X141253406Y-74302200D01*
X141253406Y-72620600D01*
X142106594Y-72620600D01*
X142106594Y-74302200D01*
X142129395Y-74423379D01*
X142201012Y-74534674D01*
X142277763Y-74587116D01*
X142264055Y-74600800D01*
X142140541Y-74898254D01*
X142140260Y-75220333D01*
X142263254Y-75518002D01*
X142490800Y-75745945D01*
X142788254Y-75869459D01*
X143110333Y-75869740D01*
X143408002Y-75746746D01*
X143635945Y-75519200D01*
X143759459Y-75221746D01*
X143759740Y-74899667D01*
X143636746Y-74601998D01*
X143621581Y-74586807D01*
X143692474Y-74541188D01*
X143767138Y-74431914D01*
X143793406Y-74302200D01*
X143793406Y-72620600D01*
X144646594Y-72620600D01*
X144646594Y-74302200D01*
X144669395Y-74423379D01*
X144741012Y-74534674D01*
X144817763Y-74587116D01*
X144804055Y-74600800D01*
X144680541Y-74898254D01*
X144680260Y-75220333D01*
X144803254Y-75518002D01*
X145030800Y-75745945D01*
X145328254Y-75869459D01*
X145650333Y-75869740D01*
X145948002Y-75746746D01*
X146175945Y-75519200D01*
X146299459Y-75221746D01*
X146299740Y-74899667D01*
X146176746Y-74601998D01*
X146161581Y-74586807D01*
X146232474Y-74541188D01*
X146307138Y-74431914D01*
X146333406Y-74302200D01*
X146333406Y-73891950D01*
X147093000Y-73891950D01*
X147093000Y-74387136D01*
X147158007Y-74544076D01*
X147278124Y-74664193D01*
X147311919Y-74678191D01*
X147220541Y-74898254D01*
X147220260Y-75220333D01*
X147343254Y-75518002D01*
X147570800Y-75745945D01*
X147868254Y-75869459D01*
X148190333Y-75869740D01*
X148488002Y-75746746D01*
X148715945Y-75519200D01*
X148839459Y-75221746D01*
X148839740Y-74899667D01*
X148748207Y-74678139D01*
X148781876Y-74664193D01*
X148901993Y-74544076D01*
X148967000Y-74387136D01*
X148967000Y-73891950D01*
X148860250Y-73785200D01*
X148285000Y-73785200D01*
X148285000Y-73805200D01*
X147775000Y-73805200D01*
X147775000Y-73785200D01*
X147199750Y-73785200D01*
X147093000Y-73891950D01*
X146333406Y-73891950D01*
X146333406Y-72620600D01*
X147093000Y-72620600D01*
X147093000Y-72932450D01*
X147199750Y-73039200D01*
X147775000Y-73039200D01*
X147775000Y-73019200D01*
X148285000Y-73019200D01*
X148285000Y-73039200D01*
X148860250Y-73039200D01*
X148967000Y-72932450D01*
X148967000Y-72620600D01*
X149726594Y-72620600D01*
X149726594Y-74302200D01*
X149749395Y-74423379D01*
X149821012Y-74534674D01*
X149897763Y-74587116D01*
X149884055Y-74600800D01*
X149760541Y-74898254D01*
X149760260Y-75220333D01*
X149883254Y-75518002D01*
X150110800Y-75745945D01*
X150408254Y-75869459D01*
X150730333Y-75869740D01*
X151028002Y-75746746D01*
X151255945Y-75519200D01*
X151379459Y-75221746D01*
X151379740Y-74899667D01*
X151256746Y-74601998D01*
X151241581Y-74586807D01*
X151312474Y-74541188D01*
X151387138Y-74431914D01*
X151413406Y-74302200D01*
X151413406Y-72620600D01*
X152266594Y-72620600D01*
X152266594Y-74302200D01*
X152289395Y-74423379D01*
X152361012Y-74534674D01*
X152437763Y-74587116D01*
X152424055Y-74600800D01*
X152300541Y-74898254D01*
X152300260Y-75220333D01*
X152423254Y-75518002D01*
X152650800Y-75745945D01*
X152948254Y-75869459D01*
X153270333Y-75869740D01*
X153568002Y-75746746D01*
X153795945Y-75519200D01*
X153919459Y-75221746D01*
X153919740Y-74899667D01*
X153796746Y-74601998D01*
X153781581Y-74586807D01*
X153852474Y-74541188D01*
X153927138Y-74431914D01*
X153953406Y-74302200D01*
X153953406Y-73891950D01*
X154713000Y-73891950D01*
X154713000Y-74387136D01*
X154778007Y-74544076D01*
X154898124Y-74664193D01*
X154931919Y-74678191D01*
X154840541Y-74898254D01*
X154840260Y-75220333D01*
X154963254Y-75518002D01*
X155190800Y-75745945D01*
X155488254Y-75869459D01*
X155810333Y-75869740D01*
X156108002Y-75746746D01*
X156335945Y-75519200D01*
X156459459Y-75221746D01*
X156459740Y-74899667D01*
X156368207Y-74678139D01*
X156401876Y-74664193D01*
X156521993Y-74544076D01*
X156587000Y-74387136D01*
X156587000Y-73891950D01*
X156480250Y-73785200D01*
X155905000Y-73785200D01*
X155905000Y-73805200D01*
X155395000Y-73805200D01*
X155395000Y-73785200D01*
X154819750Y-73785200D01*
X154713000Y-73891950D01*
X153953406Y-73891950D01*
X153953406Y-72620600D01*
X154713000Y-72620600D01*
X154713000Y-72932450D01*
X154819750Y-73039200D01*
X155395000Y-73039200D01*
X155395000Y-73019200D01*
X155905000Y-73019200D01*
X155905000Y-73039200D01*
X156480250Y-73039200D01*
X156587000Y-72932450D01*
X156587000Y-72620600D01*
X157346594Y-72620600D01*
X157346594Y-74302200D01*
X157369395Y-74423379D01*
X157441012Y-74534674D01*
X157517763Y-74587116D01*
X157504055Y-74600800D01*
X157380541Y-74898254D01*
X157380260Y-75220333D01*
X157503254Y-75518002D01*
X157730800Y-75745945D01*
X158028254Y-75869459D01*
X158350333Y-75869740D01*
X158648002Y-75746746D01*
X158875945Y-75519200D01*
X158943000Y-75357714D01*
X158943000Y-75780000D01*
X158983115Y-75981675D01*
X159097355Y-76152645D01*
X159627355Y-76682645D01*
X159798325Y-76796885D01*
X159831785Y-76803540D01*
X160000000Y-76837000D01*
X160456547Y-76837000D01*
X160271998Y-76913254D01*
X160044055Y-77140800D01*
X159920541Y-77438254D01*
X159920260Y-77760333D01*
X160043254Y-78058002D01*
X160058419Y-78073193D01*
X159987526Y-78118812D01*
X159912862Y-78228086D01*
X159886594Y-78357800D01*
X159886594Y-80137800D01*
X159909395Y-80258979D01*
X159981012Y-80370274D01*
X160090286Y-80444938D01*
X160203000Y-80467763D01*
X160203000Y-81416240D01*
X159015076Y-80228316D01*
X159033406Y-80137800D01*
X159033406Y-78357800D01*
X159010605Y-78236621D01*
X158938988Y-78125326D01*
X158862237Y-78072884D01*
X158875945Y-78059200D01*
X158999459Y-77761746D01*
X158999740Y-77439667D01*
X158876746Y-77141998D01*
X158649200Y-76914055D01*
X158351746Y-76790541D01*
X158029667Y-76790260D01*
X157731998Y-76913254D01*
X157504055Y-77140800D01*
X157380541Y-77438254D01*
X157380260Y-77760333D01*
X157503254Y-78058002D01*
X157518419Y-78073193D01*
X157447526Y-78118812D01*
X157372862Y-78228086D01*
X157346594Y-78357800D01*
X157346594Y-80137800D01*
X157360802Y-80213312D01*
X156493406Y-79345916D01*
X156493406Y-78357800D01*
X156470605Y-78236621D01*
X156398988Y-78125326D01*
X156322237Y-78072884D01*
X156335945Y-78059200D01*
X156459459Y-77761746D01*
X156459740Y-77439667D01*
X156336746Y-77141998D01*
X156109200Y-76914055D01*
X155811746Y-76790541D01*
X155489667Y-76790260D01*
X155191998Y-76913254D01*
X154964055Y-77140800D01*
X154840541Y-77438254D01*
X154840260Y-77760333D01*
X154963254Y-78058002D01*
X154978419Y-78073193D01*
X154907526Y-78118812D01*
X154832862Y-78228086D01*
X154806594Y-78357800D01*
X154806594Y-80137800D01*
X154828346Y-80253401D01*
X154635168Y-80173187D01*
X154206711Y-80172813D01*
X154122782Y-80207492D01*
X153953406Y-80038116D01*
X153953406Y-78357800D01*
X153930605Y-78236621D01*
X153858988Y-78125326D01*
X153782237Y-78072884D01*
X153795945Y-78059200D01*
X153919459Y-77761746D01*
X153919740Y-77439667D01*
X153796746Y-77141998D01*
X153569200Y-76914055D01*
X153271746Y-76790541D01*
X152949667Y-76790260D01*
X152651998Y-76913254D01*
X152424055Y-77140800D01*
X152300541Y-77438254D01*
X152300260Y-77760333D01*
X152423254Y-78058002D01*
X152438419Y-78073193D01*
X152367526Y-78118812D01*
X152292862Y-78228086D01*
X152266594Y-78357800D01*
X152266594Y-80137800D01*
X152289395Y-80258979D01*
X152361012Y-80370274D01*
X152470286Y-80444938D01*
X152600000Y-80471206D01*
X152895916Y-80471206D01*
X153377326Y-80952616D01*
X153343187Y-81034832D01*
X153342813Y-81463289D01*
X153506431Y-81859275D01*
X153809132Y-82162504D01*
X154204832Y-82326813D01*
X154633289Y-82327187D01*
X155029275Y-82163569D01*
X155332504Y-81860868D01*
X155496813Y-81465168D01*
X155497187Y-81036711D01*
X155333569Y-80640725D01*
X155164345Y-80471206D01*
X156128116Y-80471206D01*
X162279555Y-86622645D01*
X162450525Y-86736885D01*
X162483985Y-86743540D01*
X162652200Y-86777000D01*
X168312436Y-86777000D01*
X168346431Y-86859275D01*
X168649132Y-87162504D01*
X169044832Y-87326813D01*
X169473289Y-87327187D01*
X169869275Y-87163569D01*
X170172504Y-86860868D01*
X170336813Y-86465168D01*
X170337187Y-86036711D01*
X170173569Y-85640725D01*
X169870868Y-85337496D01*
X169677012Y-85257000D01*
X176950000Y-85257000D01*
X177010540Y-85244958D01*
X177072219Y-85242632D01*
X177110432Y-85225088D01*
X177151674Y-85216885D01*
X177202997Y-85182592D01*
X177259091Y-85156839D01*
X178237563Y-84448290D01*
X178474832Y-84546813D01*
X178903289Y-84547187D01*
X179299275Y-84383569D01*
X179602504Y-84080868D01*
X179766813Y-83685168D01*
X179767187Y-83256711D01*
X179603569Y-82860725D01*
X179549938Y-82807000D01*
X183871710Y-82807000D01*
X184383000Y-83318290D01*
X184383000Y-88550000D01*
X184423115Y-88751675D01*
X184537355Y-88922645D01*
X186053000Y-90438291D01*
X186053000Y-92362436D01*
X185970725Y-92396431D01*
X185667496Y-92699132D01*
X185503187Y-93094832D01*
X185502813Y-93523289D01*
X185666431Y-93919275D01*
X185969132Y-94222504D01*
X186364832Y-94386813D01*
X186793289Y-94387187D01*
X187189275Y-94223569D01*
X187492504Y-93920868D01*
X187656813Y-93525168D01*
X187657187Y-93096711D01*
X187493569Y-92700725D01*
X187190868Y-92397496D01*
X187107000Y-92362671D01*
X187107000Y-90220000D01*
X187066885Y-90018326D01*
X187009747Y-89932813D01*
X186952646Y-89847355D01*
X186392162Y-89286872D01*
X186753289Y-89287187D01*
X187149275Y-89123569D01*
X187452504Y-88820868D01*
X187616813Y-88425168D01*
X187617187Y-87996711D01*
X187582508Y-87912782D01*
X187972645Y-87522646D01*
X188086884Y-87351675D01*
X188086885Y-87351674D01*
X188127000Y-87150000D01*
X188127000Y-83060000D01*
X188117388Y-83011675D01*
X188086885Y-82858325D01*
X187972645Y-82687355D01*
X186582645Y-81297355D01*
X186411675Y-81183115D01*
X186210000Y-81143000D01*
X165898290Y-81143000D01*
X165207831Y-80452541D01*
X165300000Y-80471206D01*
X166320000Y-80471206D01*
X166441179Y-80448405D01*
X166552474Y-80376788D01*
X166627138Y-80267514D01*
X166653406Y-80137800D01*
X166653406Y-78357800D01*
X167506594Y-78357800D01*
X167506594Y-80137800D01*
X167529395Y-80258979D01*
X167601012Y-80370274D01*
X167710286Y-80444938D01*
X167840000Y-80471206D01*
X168860000Y-80471206D01*
X168981179Y-80448405D01*
X169092474Y-80376788D01*
X169167138Y-80267514D01*
X169193406Y-80137800D01*
X169193406Y-78357800D01*
X170046594Y-78357800D01*
X170046594Y-80137800D01*
X170069395Y-80258979D01*
X170141012Y-80370274D01*
X170250286Y-80444938D01*
X170380000Y-80471206D01*
X171400000Y-80471206D01*
X171521179Y-80448405D01*
X171632474Y-80376788D01*
X171707138Y-80267514D01*
X171733406Y-80137800D01*
X171733406Y-78357800D01*
X172586594Y-78357800D01*
X172586594Y-80137800D01*
X172609395Y-80258979D01*
X172681012Y-80370274D01*
X172790286Y-80444938D01*
X172920000Y-80471206D01*
X173940000Y-80471206D01*
X174061179Y-80448405D01*
X174172474Y-80376788D01*
X174247138Y-80267514D01*
X174273406Y-80137800D01*
X174273406Y-78357800D01*
X175126594Y-78357800D01*
X175126594Y-80137800D01*
X175149395Y-80258979D01*
X175221012Y-80370274D01*
X175330286Y-80444938D01*
X175460000Y-80471206D01*
X176480000Y-80471206D01*
X176601179Y-80448405D01*
X176712474Y-80376788D01*
X176787138Y-80267514D01*
X176813406Y-80137800D01*
X176813406Y-78357800D01*
X176790605Y-78236621D01*
X176718988Y-78125326D01*
X176642237Y-78072884D01*
X176655945Y-78059200D01*
X176779459Y-77761746D01*
X176779740Y-77439667D01*
X176656746Y-77141998D01*
X176429200Y-76914055D01*
X176131746Y-76790541D01*
X175809667Y-76790260D01*
X175511998Y-76913254D01*
X175284055Y-77140800D01*
X175160541Y-77438254D01*
X175160260Y-77760333D01*
X175283254Y-78058002D01*
X175298419Y-78073193D01*
X175227526Y-78118812D01*
X175152862Y-78228086D01*
X175126594Y-78357800D01*
X174273406Y-78357800D01*
X174250605Y-78236621D01*
X174178988Y-78125326D01*
X174102237Y-78072884D01*
X174115945Y-78059200D01*
X174239459Y-77761746D01*
X174239740Y-77439667D01*
X174116746Y-77141998D01*
X173889200Y-76914055D01*
X173591746Y-76790541D01*
X173269667Y-76790260D01*
X172971998Y-76913254D01*
X172744055Y-77140800D01*
X172620541Y-77438254D01*
X172620260Y-77760333D01*
X172743254Y-78058002D01*
X172758419Y-78073193D01*
X172687526Y-78118812D01*
X172612862Y-78228086D01*
X172586594Y-78357800D01*
X171733406Y-78357800D01*
X171710605Y-78236621D01*
X171638988Y-78125326D01*
X171562237Y-78072884D01*
X171575945Y-78059200D01*
X171699459Y-77761746D01*
X171699740Y-77439667D01*
X171576746Y-77141998D01*
X171349200Y-76914055D01*
X171051746Y-76790541D01*
X170729667Y-76790260D01*
X170431998Y-76913254D01*
X170204055Y-77140800D01*
X170080541Y-77438254D01*
X170080260Y-77760333D01*
X170203254Y-78058002D01*
X170218419Y-78073193D01*
X170147526Y-78118812D01*
X170072862Y-78228086D01*
X170046594Y-78357800D01*
X169193406Y-78357800D01*
X169170605Y-78236621D01*
X169098988Y-78125326D01*
X169022237Y-78072884D01*
X169035945Y-78059200D01*
X169159459Y-77761746D01*
X169159740Y-77439667D01*
X169036746Y-77141998D01*
X168809200Y-76914055D01*
X168511746Y-76790541D01*
X168189667Y-76790260D01*
X167891998Y-76913254D01*
X167664055Y-77140800D01*
X167540541Y-77438254D01*
X167540260Y-77760333D01*
X167663254Y-78058002D01*
X167678419Y-78073193D01*
X167607526Y-78118812D01*
X167532862Y-78228086D01*
X167506594Y-78357800D01*
X166653406Y-78357800D01*
X166630605Y-78236621D01*
X166558988Y-78125326D01*
X166482237Y-78072884D01*
X166495945Y-78059200D01*
X166619459Y-77761746D01*
X166619740Y-77439667D01*
X166496746Y-77141998D01*
X166269200Y-76914055D01*
X165971746Y-76790541D01*
X165649667Y-76790260D01*
X165351998Y-76913254D01*
X165124055Y-77140800D01*
X165027000Y-77374534D01*
X165027000Y-77160000D01*
X164986885Y-76958326D01*
X164872645Y-76787355D01*
X164082645Y-75997355D01*
X163911675Y-75883115D01*
X163710000Y-75843000D01*
X163495049Y-75843000D01*
X163728002Y-75746746D01*
X163955945Y-75519200D01*
X164079459Y-75221746D01*
X164079740Y-74899667D01*
X163956746Y-74601998D01*
X163941581Y-74586807D01*
X164012474Y-74541188D01*
X164087138Y-74431914D01*
X164113406Y-74302200D01*
X164113406Y-72620600D01*
X164966594Y-72620600D01*
X164966594Y-74302200D01*
X164989395Y-74423379D01*
X165061012Y-74534674D01*
X165137763Y-74587116D01*
X165124055Y-74600800D01*
X165000541Y-74898254D01*
X165000260Y-75220333D01*
X165123254Y-75518002D01*
X165350800Y-75745945D01*
X165648254Y-75869459D01*
X165970333Y-75869740D01*
X166268002Y-75746746D01*
X166495945Y-75519200D01*
X166619459Y-75221746D01*
X166619740Y-74899667D01*
X166496746Y-74601998D01*
X166481581Y-74586807D01*
X166552474Y-74541188D01*
X166627138Y-74431914D01*
X166653406Y-74302200D01*
X166653406Y-73891950D01*
X167413000Y-73891950D01*
X167413000Y-74387136D01*
X167478007Y-74544076D01*
X167598124Y-74664193D01*
X167631919Y-74678191D01*
X167540541Y-74898254D01*
X167540260Y-75220333D01*
X167663254Y-75518002D01*
X167890800Y-75745945D01*
X168188254Y-75869459D01*
X168510333Y-75869740D01*
X168808002Y-75746746D01*
X169035945Y-75519200D01*
X169159459Y-75221746D01*
X169159740Y-74899667D01*
X169068207Y-74678139D01*
X169101876Y-74664193D01*
X169221993Y-74544076D01*
X169287000Y-74387136D01*
X169287000Y-73891950D01*
X169180250Y-73785200D01*
X168605000Y-73785200D01*
X168605000Y-73805200D01*
X168095000Y-73805200D01*
X168095000Y-73785200D01*
X167519750Y-73785200D01*
X167413000Y-73891950D01*
X166653406Y-73891950D01*
X166653406Y-72620600D01*
X167413000Y-72620600D01*
X167413000Y-72932450D01*
X167519750Y-73039200D01*
X168095000Y-73039200D01*
X168095000Y-73019200D01*
X168605000Y-73019200D01*
X168605000Y-73039200D01*
X169180250Y-73039200D01*
X169287000Y-72932450D01*
X169287000Y-72620600D01*
X170046594Y-72620600D01*
X170046594Y-74302200D01*
X170069395Y-74423379D01*
X170141012Y-74534674D01*
X170217763Y-74587116D01*
X170204055Y-74600800D01*
X170080541Y-74898254D01*
X170080260Y-75220333D01*
X170203254Y-75518002D01*
X170430800Y-75745945D01*
X170728254Y-75869459D01*
X171050333Y-75869740D01*
X171348002Y-75746746D01*
X171575945Y-75519200D01*
X171699459Y-75221746D01*
X171699740Y-74899667D01*
X171576746Y-74601998D01*
X171561581Y-74586807D01*
X171632474Y-74541188D01*
X171707138Y-74431914D01*
X171733406Y-74302200D01*
X171733406Y-73891950D01*
X172493000Y-73891950D01*
X172493000Y-74387136D01*
X172558007Y-74544076D01*
X172678124Y-74664193D01*
X172711919Y-74678191D01*
X172620541Y-74898254D01*
X172620260Y-75220333D01*
X172743254Y-75518002D01*
X172970800Y-75745945D01*
X173268254Y-75869459D01*
X173590333Y-75869740D01*
X173888002Y-75746746D01*
X174115945Y-75519200D01*
X174239459Y-75221746D01*
X174239740Y-74899667D01*
X174148207Y-74678139D01*
X174181876Y-74664193D01*
X174301993Y-74544076D01*
X174367000Y-74387136D01*
X174367000Y-73891950D01*
X174260250Y-73785200D01*
X173685000Y-73785200D01*
X173685000Y-73805200D01*
X173175000Y-73805200D01*
X173175000Y-73785200D01*
X172599750Y-73785200D01*
X172493000Y-73891950D01*
X171733406Y-73891950D01*
X171733406Y-72620600D01*
X172493000Y-72620600D01*
X172493000Y-72932450D01*
X172599750Y-73039200D01*
X173175000Y-73039200D01*
X173175000Y-73019200D01*
X173685000Y-73019200D01*
X173685000Y-73039200D01*
X174260250Y-73039200D01*
X174367000Y-72932450D01*
X174367000Y-72620600D01*
X175126594Y-72620600D01*
X175126594Y-74302200D01*
X175149395Y-74423379D01*
X175221012Y-74534674D01*
X175297763Y-74587116D01*
X175284055Y-74600800D01*
X175160541Y-74898254D01*
X175160260Y-75220333D01*
X175283254Y-75518002D01*
X175510800Y-75745945D01*
X175808254Y-75869459D01*
X176130333Y-75869740D01*
X176428002Y-75746746D01*
X176655945Y-75519200D01*
X176779459Y-75221746D01*
X176779740Y-74899667D01*
X176656746Y-74601998D01*
X176641581Y-74586807D01*
X176712474Y-74541188D01*
X176787138Y-74431914D01*
X176813406Y-74302200D01*
X176813406Y-72620600D01*
X177666594Y-72620600D01*
X177666594Y-74302200D01*
X177689395Y-74423379D01*
X177761012Y-74534674D01*
X177837763Y-74587116D01*
X177824055Y-74600800D01*
X177700541Y-74898254D01*
X177700260Y-75220333D01*
X177823254Y-75518002D01*
X178050800Y-75745945D01*
X178348254Y-75869459D01*
X178654456Y-75869726D01*
X178564211Y-76087061D01*
X178563789Y-76570816D01*
X178654571Y-76790526D01*
X178349667Y-76790260D01*
X178051998Y-76913254D01*
X177824055Y-77140800D01*
X177700541Y-77438254D01*
X177700260Y-77760333D01*
X177823254Y-78058002D01*
X177838419Y-78073193D01*
X177767526Y-78118812D01*
X177692862Y-78228086D01*
X177666594Y-78357800D01*
X177666594Y-80137800D01*
X177689395Y-80258979D01*
X177761012Y-80370274D01*
X177870286Y-80444938D01*
X178000000Y-80471206D01*
X179020000Y-80471206D01*
X179141179Y-80448405D01*
X179252474Y-80376788D01*
X179327138Y-80267514D01*
X179353406Y-80137800D01*
X179353406Y-79727550D01*
X180113000Y-79727550D01*
X180113000Y-80222736D01*
X180178007Y-80379676D01*
X180298124Y-80499793D01*
X180455065Y-80564800D01*
X180688250Y-80564800D01*
X180795000Y-80458050D01*
X180795000Y-79620800D01*
X181305000Y-79620800D01*
X181305000Y-80458050D01*
X181411750Y-80564800D01*
X181644935Y-80564800D01*
X181801876Y-80499793D01*
X181921993Y-80379676D01*
X181987000Y-80222736D01*
X181987000Y-79727550D01*
X181880250Y-79620800D01*
X181305000Y-79620800D01*
X180795000Y-79620800D01*
X180219750Y-79620800D01*
X180113000Y-79727550D01*
X179353406Y-79727550D01*
X179353406Y-78357800D01*
X179330605Y-78236621D01*
X179258988Y-78125326D01*
X179182237Y-78072884D01*
X179195945Y-78059200D01*
X179319459Y-77761746D01*
X179319726Y-77455544D01*
X179537061Y-77545789D01*
X180020816Y-77546211D01*
X180240526Y-77455429D01*
X180240260Y-77760333D01*
X180331793Y-77981861D01*
X180298124Y-77995807D01*
X180178007Y-78115924D01*
X180113000Y-78272864D01*
X180113000Y-78768050D01*
X180219750Y-78874800D01*
X180795000Y-78874800D01*
X180795000Y-78854800D01*
X181305000Y-78854800D01*
X181305000Y-78874800D01*
X181880250Y-78874800D01*
X181987000Y-78768050D01*
X181987000Y-78272864D01*
X181921993Y-78115924D01*
X181801876Y-77995807D01*
X181768081Y-77981809D01*
X181859459Y-77761746D01*
X181859740Y-77439667D01*
X181736746Y-77141998D01*
X181509200Y-76914055D01*
X181211746Y-76790541D01*
X180905544Y-76790274D01*
X180995789Y-76572939D01*
X180996211Y-76089184D01*
X180905429Y-75869474D01*
X181210333Y-75869740D01*
X181508002Y-75746746D01*
X181735945Y-75519200D01*
X181859459Y-75221746D01*
X181859740Y-74899667D01*
X181736746Y-74601998D01*
X181721581Y-74586807D01*
X181792474Y-74541188D01*
X181867138Y-74431914D01*
X181893406Y-74302200D01*
X181893406Y-72620600D01*
X186412583Y-72620600D01*
X187353461Y-72786492D01*
X188157016Y-73250630D01*
X188751757Y-73960230D01*
X189073389Y-74844806D01*
X189114100Y-75305819D01*
X189114100Y-75450536D01*
X188727313Y-74514439D01*
X187820336Y-73605877D01*
X186634706Y-73113561D01*
X185350926Y-73112441D01*
X184164439Y-73602687D01*
X183255877Y-74509664D01*
X182763561Y-75695294D01*
X182762441Y-76979074D01*
X183252687Y-78165561D01*
X184159664Y-79074123D01*
X185345294Y-79566439D01*
X186629074Y-79567559D01*
X187815561Y-79077313D01*
X188724123Y-78170336D01*
X189114100Y-77231166D01*
X189114100Y-124460536D01*
X188727313Y-123524439D01*
X187820336Y-122615877D01*
X186634706Y-122123561D01*
X185350926Y-122122441D01*
X184164439Y-122612687D01*
X183255877Y-123519664D01*
X182763561Y-124705294D01*
X182762441Y-125989074D01*
X183252687Y-127175561D01*
X184159664Y-128084123D01*
X185080772Y-128466600D01*
X128883414Y-128466600D01*
X129825561Y-128077313D01*
X130734123Y-127170336D01*
X131226439Y-125984706D01*
X131227559Y-124700926D01*
X130737313Y-123514439D01*
X129830336Y-122605877D01*
X128644706Y-122113561D01*
X127360926Y-122112441D01*
X126174439Y-122602687D01*
X125265877Y-123509664D01*
X124773561Y-124695294D01*
X124772571Y-125829935D01*
X124768100Y-125778851D01*
X124768100Y-110322417D01*
X124813471Y-110065089D01*
X124929491Y-109864174D01*
X125107237Y-109715084D01*
X125338444Y-109630854D01*
X125455829Y-109620600D01*
X128439100Y-109620600D01*
X128455380Y-109617362D01*
X128471877Y-109619172D01*
X128636877Y-109604772D01*
X128684228Y-109590982D01*
X128732983Y-109583486D01*
X129044982Y-109469986D01*
X129101149Y-109435916D01*
X129158731Y-109404247D01*
X129410731Y-109192347D01*
X129451496Y-109141447D01*
X129494509Y-109092443D01*
X129659509Y-108806943D01*
X129680619Y-108744844D01*
X129704378Y-108683733D01*
X129762378Y-108354633D01*
X129761655Y-108321604D01*
X129768100Y-108289200D01*
X129768100Y-106883289D01*
X140802813Y-106883289D01*
X140966431Y-107279275D01*
X141269132Y-107582504D01*
X141353000Y-107617329D01*
X141353000Y-118410000D01*
X141393115Y-118611675D01*
X141507355Y-118782645D01*
X144577326Y-121852616D01*
X144543187Y-121934832D01*
X144542813Y-122363289D01*
X144706431Y-122759275D01*
X145009132Y-123062504D01*
X145404832Y-123226813D01*
X145833289Y-123227187D01*
X146229275Y-123063569D01*
X146532504Y-122760868D01*
X146696813Y-122365168D01*
X146697187Y-121936711D01*
X146533569Y-121540725D01*
X146230868Y-121237496D01*
X145835168Y-121073187D01*
X145406711Y-121072813D01*
X145322782Y-121107492D01*
X142407000Y-118191710D01*
X142407000Y-117350000D01*
X146743000Y-117350000D01*
X146743000Y-120700000D01*
X146783115Y-120901675D01*
X146897355Y-121072645D01*
X148237355Y-122412645D01*
X148408325Y-122526885D01*
X148441785Y-122533540D01*
X148610000Y-122567000D01*
X158312436Y-122567000D01*
X158346431Y-122649275D01*
X158649132Y-122952504D01*
X159044832Y-123116813D01*
X159473289Y-123117187D01*
X159869275Y-122953569D01*
X160172504Y-122650868D01*
X160336813Y-122255168D01*
X160337187Y-121826711D01*
X160173569Y-121430725D01*
X159870868Y-121127496D01*
X159475168Y-120963187D01*
X159046711Y-120962813D01*
X158650725Y-121126431D01*
X158347496Y-121429132D01*
X158312671Y-121513000D01*
X158240072Y-121513000D01*
X158412504Y-121340868D01*
X158576813Y-120945168D01*
X158577187Y-120516711D01*
X158413569Y-120120725D01*
X158110868Y-119817496D01*
X157715168Y-119653187D01*
X157286711Y-119652813D01*
X156890725Y-119816431D01*
X156587496Y-120119132D01*
X156552671Y-120203000D01*
X149368290Y-120203000D01*
X149089449Y-119924159D01*
X149384832Y-120046813D01*
X149813289Y-120047187D01*
X150209275Y-119883569D01*
X150512504Y-119580868D01*
X150676813Y-119185168D01*
X150677187Y-118756711D01*
X150642508Y-118672782D01*
X156673000Y-112642290D01*
X156673000Y-116282436D01*
X156590725Y-116316431D01*
X156287496Y-116619132D01*
X156123187Y-117014832D01*
X156122813Y-117443289D01*
X156286431Y-117839275D01*
X156589132Y-118142504D01*
X156984832Y-118306813D01*
X157413289Y-118307187D01*
X157809275Y-118143569D01*
X158112504Y-117840868D01*
X158276813Y-117445168D01*
X158277187Y-117016711D01*
X158113569Y-116620725D01*
X157810868Y-116317496D01*
X157727000Y-116282671D01*
X157727000Y-113283289D01*
X157872813Y-113283289D01*
X158036431Y-113679275D01*
X158339132Y-113982504D01*
X158734832Y-114146813D01*
X159163289Y-114147187D01*
X159247218Y-114112508D01*
X166587355Y-121452646D01*
X166716791Y-121539132D01*
X166758326Y-121566885D01*
X166960000Y-121607000D01*
X176412436Y-121607000D01*
X176446431Y-121689275D01*
X176749132Y-121992504D01*
X177144832Y-122156813D01*
X177573289Y-122157187D01*
X177969275Y-121993569D01*
X178272504Y-121690868D01*
X178436813Y-121295168D01*
X178437187Y-120866711D01*
X178273569Y-120470725D01*
X177970868Y-120167496D01*
X177575168Y-120003187D01*
X177146711Y-120002813D01*
X176750725Y-120166431D01*
X176447496Y-120469132D01*
X176412671Y-120553000D01*
X167178291Y-120553000D01*
X159992674Y-113367384D01*
X160026813Y-113285168D01*
X160027187Y-112856711D01*
X159863569Y-112460725D01*
X159560868Y-112157496D01*
X159165168Y-111993187D01*
X158736711Y-111992813D01*
X158340725Y-112156431D01*
X158037496Y-112459132D01*
X157873187Y-112854832D01*
X157872813Y-113283289D01*
X157727000Y-113283289D01*
X157727000Y-112488290D01*
X168542645Y-101672645D01*
X168656885Y-101501674D01*
X168697000Y-101300000D01*
X168697000Y-97997564D01*
X168779275Y-97963569D01*
X169082504Y-97660868D01*
X169246813Y-97265168D01*
X169247187Y-96836711D01*
X169083569Y-96440725D01*
X168780868Y-96137496D01*
X168385168Y-95973187D01*
X167956711Y-95972813D01*
X167758761Y-96054604D01*
X167762504Y-96050868D01*
X167926813Y-95655168D01*
X167927187Y-95226711D01*
X167763569Y-94830725D01*
X167460868Y-94527496D01*
X167065168Y-94363187D01*
X166636711Y-94362813D01*
X166240725Y-94526431D01*
X165937496Y-94829132D01*
X165773187Y-95224832D01*
X165772813Y-95653289D01*
X165936431Y-96049275D01*
X166239132Y-96352504D01*
X166263000Y-96362415D01*
X166263000Y-101561710D01*
X149897384Y-117927326D01*
X149815168Y-117893187D01*
X149562324Y-117892966D01*
X155272645Y-112182645D01*
X155386885Y-112011675D01*
X155409624Y-111897355D01*
X155427000Y-111810000D01*
X155427000Y-108097564D01*
X155509275Y-108063569D01*
X155812504Y-107760868D01*
X155976813Y-107365168D01*
X155977187Y-106936711D01*
X155942508Y-106852782D01*
X159632645Y-103162645D01*
X159746885Y-102991675D01*
X159787000Y-102790000D01*
X159787000Y-100400000D01*
X159746885Y-100198326D01*
X159708978Y-100141594D01*
X159632645Y-100027354D01*
X153632674Y-94027384D01*
X153666813Y-93945168D01*
X153667187Y-93516711D01*
X153503569Y-93120725D01*
X153200868Y-92817496D01*
X152805168Y-92653187D01*
X152376711Y-92652813D01*
X151980725Y-92816431D01*
X151677496Y-93119132D01*
X151513187Y-93514832D01*
X151512813Y-93943289D01*
X151676431Y-94339275D01*
X151979132Y-94642504D01*
X152374832Y-94806813D01*
X152803289Y-94807187D01*
X152887218Y-94772508D01*
X158733000Y-100618291D01*
X158733000Y-102571710D01*
X155197384Y-106107326D01*
X155115168Y-106073187D01*
X154686711Y-106072813D01*
X154290725Y-106236431D01*
X153987496Y-106539132D01*
X153823187Y-106934832D01*
X153822813Y-107363289D01*
X153986431Y-107759275D01*
X154289132Y-108062504D01*
X154373000Y-108097329D01*
X154373000Y-111591710D01*
X153266985Y-112697725D01*
X153267187Y-112466711D01*
X153103569Y-112070725D01*
X152800868Y-111767496D01*
X152405168Y-111603187D01*
X151976711Y-111602813D01*
X151580725Y-111766431D01*
X151277496Y-112069132D01*
X151113187Y-112464832D01*
X151112928Y-112761782D01*
X146897355Y-116977355D01*
X146783115Y-117148325D01*
X146783115Y-117148326D01*
X146743000Y-117350000D01*
X142407000Y-117350000D01*
X142407000Y-107617564D01*
X142489275Y-107583569D01*
X142792504Y-107280868D01*
X142956813Y-106885168D01*
X142957187Y-106456711D01*
X142793569Y-106060725D01*
X142490868Y-105757496D01*
X142095168Y-105593187D01*
X141666711Y-105592813D01*
X141270725Y-105756431D01*
X140967496Y-106059132D01*
X140803187Y-106454832D01*
X140802813Y-106883289D01*
X129768100Y-106883289D01*
X129768100Y-97803289D01*
X130862813Y-97803289D01*
X131026431Y-98199275D01*
X131329132Y-98502504D01*
X131724832Y-98666813D01*
X132153289Y-98667187D01*
X132549275Y-98503569D01*
X132635995Y-98417000D01*
X133697446Y-98417000D01*
X138062918Y-102782472D01*
X138062813Y-102903289D01*
X138226431Y-103299275D01*
X138529132Y-103602504D01*
X138924832Y-103766813D01*
X139353289Y-103767187D01*
X139749275Y-103603569D01*
X140052504Y-103300868D01*
X140216813Y-102905168D01*
X140217187Y-102476711D01*
X140053569Y-102080725D01*
X139750868Y-101777496D01*
X139355168Y-101613187D01*
X139232634Y-101613080D01*
X134624777Y-97005223D01*
X134356479Y-96825952D01*
X134040000Y-96763000D01*
X132636223Y-96763000D01*
X132550868Y-96677496D01*
X132155168Y-96513187D01*
X131726711Y-96512813D01*
X131330725Y-96676431D01*
X131027496Y-96979132D01*
X130863187Y-97374832D01*
X130862813Y-97803289D01*
X129768100Y-97803289D01*
X129768100Y-93295800D01*
X129764949Y-93279960D01*
X129766749Y-93263907D01*
X129752749Y-93099007D01*
X129738869Y-93050928D01*
X129731190Y-93001480D01*
X129617190Y-92689580D01*
X129583265Y-92633844D01*
X129551874Y-92576640D01*
X129339874Y-92324040D01*
X129288915Y-92283149D01*
X129239819Y-92240035D01*
X128954819Y-92075235D01*
X128892705Y-92054104D01*
X128831552Y-92030325D01*
X128502553Y-91972325D01*
X128469512Y-91973047D01*
X128437100Y-91966600D01*
X125469617Y-91966600D01*
X125212721Y-91921305D01*
X125011674Y-91805209D01*
X124862616Y-91627501D01*
X124778312Y-91395879D01*
X124768100Y-91279245D01*
X124768100Y-91223289D01*
X131692813Y-91223289D01*
X131856431Y-91619275D01*
X132159132Y-91922504D01*
X132554832Y-92086813D01*
X132983289Y-92087187D01*
X133067218Y-92052508D01*
X139787355Y-98772645D01*
X139958325Y-98886885D01*
X139991785Y-98893540D01*
X140160000Y-98927000D01*
X153052436Y-98927000D01*
X153086431Y-99009275D01*
X153389132Y-99312504D01*
X153784832Y-99476813D01*
X154213289Y-99477187D01*
X154609275Y-99313569D01*
X154912504Y-99010868D01*
X155076813Y-98615168D01*
X155077187Y-98186711D01*
X154913569Y-97790725D01*
X154610868Y-97487496D01*
X154215168Y-97323187D01*
X153786711Y-97322813D01*
X153390725Y-97486431D01*
X153087496Y-97789132D01*
X153052671Y-97873000D01*
X140378290Y-97873000D01*
X133812674Y-91307384D01*
X133846813Y-91225168D01*
X133847187Y-90796711D01*
X133683569Y-90400725D01*
X133380868Y-90097496D01*
X132985168Y-89933187D01*
X132556711Y-89932813D01*
X132160725Y-90096431D01*
X131857496Y-90399132D01*
X131693187Y-90794832D01*
X131692813Y-91223289D01*
X124768100Y-91223289D01*
X124768100Y-77026972D01*
X125242687Y-78175561D01*
X126149664Y-79084123D01*
X127335294Y-79576439D01*
X128619074Y-79577559D01*
X129805561Y-79087313D01*
X130714123Y-78180336D01*
X130813000Y-77942213D01*
X130813000Y-79268867D01*
X130218825Y-79863042D01*
X129956711Y-79862813D01*
X129560725Y-80026431D01*
X129257496Y-80329132D01*
X129093187Y-80724832D01*
X129092813Y-81153289D01*
X129256431Y-81549275D01*
X129559132Y-81852504D01*
X129954832Y-82016813D01*
X130383289Y-82017187D01*
X130779275Y-81853569D01*
X131082504Y-81550868D01*
X131246813Y-81155168D01*
X131247044Y-80891090D01*
X131955104Y-80183029D01*
X131969395Y-80258979D01*
X132041012Y-80370274D01*
X132150286Y-80444938D01*
X132280000Y-80471206D01*
X132356257Y-80471206D01*
X132417355Y-80562645D01*
X132957326Y-81102616D01*
X132923187Y-81184832D01*
X132922813Y-81613289D01*
X133086431Y-82009275D01*
X133389132Y-82312504D01*
X133784832Y-82476813D01*
X134213289Y-82477187D01*
X134609275Y-82313569D01*
X134912504Y-82010868D01*
X135076813Y-81615168D01*
X135077060Y-81332350D01*
X135907355Y-82162645D01*
X136078325Y-82276885D01*
X136280000Y-82317000D01*
X138431710Y-82317000D01*
X148567356Y-92452647D01*
X148636341Y-92498741D01*
X148738328Y-92566887D01*
X148940002Y-92607002D01*
X165821712Y-92607002D01*
X177863000Y-104648291D01*
X177863000Y-106270000D01*
X177903115Y-106471675D01*
X178017355Y-106642645D01*
X178757355Y-107382645D01*
X178928325Y-107496885D01*
X179130000Y-107537000D01*
X183492436Y-107537000D01*
X183526431Y-107619275D01*
X183829132Y-107922504D01*
X184224832Y-108086813D01*
X184653289Y-108087187D01*
X185049275Y-107923569D01*
X185352504Y-107620868D01*
X185516813Y-107225168D01*
X185517187Y-106796711D01*
X185353569Y-106400725D01*
X185050868Y-106097496D01*
X184655168Y-105933187D01*
X184226711Y-105932813D01*
X183830725Y-106096431D01*
X183527496Y-106399132D01*
X183492671Y-106483000D01*
X179348290Y-106483000D01*
X178917000Y-106051710D01*
X178917000Y-105509862D01*
X179209132Y-105802504D01*
X179604832Y-105966813D01*
X180033289Y-105967187D01*
X180429275Y-105803569D01*
X180732504Y-105500868D01*
X180896813Y-105105168D01*
X180897187Y-104676711D01*
X180733569Y-104280725D01*
X180430868Y-103977496D01*
X180035168Y-103813187D01*
X179606711Y-103812813D01*
X179522782Y-103847492D01*
X166782645Y-91107355D01*
X166611675Y-90993115D01*
X166410000Y-90953000D01*
X149488291Y-90953000D01*
X140248580Y-81713289D01*
X144472813Y-81713289D01*
X144636431Y-82109275D01*
X144939132Y-82412504D01*
X145334832Y-82576813D01*
X145763289Y-82577187D01*
X146159275Y-82413569D01*
X146462504Y-82110868D01*
X146626813Y-81715168D01*
X146627187Y-81286711D01*
X146463569Y-80890725D01*
X146160868Y-80587496D01*
X146077000Y-80552671D01*
X146077000Y-80456718D01*
X146121179Y-80448405D01*
X146232474Y-80376788D01*
X146307138Y-80267514D01*
X146333406Y-80137800D01*
X146333406Y-78357800D01*
X147186594Y-78357800D01*
X147186594Y-80137800D01*
X147209395Y-80258979D01*
X147281012Y-80370274D01*
X147390286Y-80444938D01*
X147520000Y-80471206D01*
X148540000Y-80471206D01*
X148661179Y-80448405D01*
X148772474Y-80376788D01*
X148847138Y-80267514D01*
X148873406Y-80137800D01*
X148873406Y-78357800D01*
X149726594Y-78357800D01*
X149726594Y-80137800D01*
X149749395Y-80258979D01*
X149821012Y-80370274D01*
X149930286Y-80444938D01*
X150060000Y-80471206D01*
X151080000Y-80471206D01*
X151201179Y-80448405D01*
X151312474Y-80376788D01*
X151387138Y-80267514D01*
X151413406Y-80137800D01*
X151413406Y-78357800D01*
X151390605Y-78236621D01*
X151318988Y-78125326D01*
X151242237Y-78072884D01*
X151255945Y-78059200D01*
X151379459Y-77761746D01*
X151379740Y-77439667D01*
X151256746Y-77141998D01*
X151029200Y-76914055D01*
X150731746Y-76790541D01*
X150409667Y-76790260D01*
X150111998Y-76913254D01*
X149884055Y-77140800D01*
X149760541Y-77438254D01*
X149760260Y-77760333D01*
X149883254Y-78058002D01*
X149898419Y-78073193D01*
X149827526Y-78118812D01*
X149752862Y-78228086D01*
X149726594Y-78357800D01*
X148873406Y-78357800D01*
X148850605Y-78236621D01*
X148778988Y-78125326D01*
X148702237Y-78072884D01*
X148715945Y-78059200D01*
X148839459Y-77761746D01*
X148839740Y-77439667D01*
X148716746Y-77141998D01*
X148489200Y-76914055D01*
X148191746Y-76790541D01*
X147869667Y-76790260D01*
X147571998Y-76913254D01*
X147344055Y-77140800D01*
X147220541Y-77438254D01*
X147220260Y-77760333D01*
X147343254Y-78058002D01*
X147358419Y-78073193D01*
X147287526Y-78118812D01*
X147212862Y-78228086D01*
X147186594Y-78357800D01*
X146333406Y-78357800D01*
X146310605Y-78236621D01*
X146238988Y-78125326D01*
X146162237Y-78072884D01*
X146175945Y-78059200D01*
X146299459Y-77761746D01*
X146299740Y-77439667D01*
X146176746Y-77141998D01*
X145949200Y-76914055D01*
X145651746Y-76790541D01*
X145329667Y-76790260D01*
X145031998Y-76913254D01*
X144804055Y-77140800D01*
X144680541Y-77438254D01*
X144680260Y-77760333D01*
X144803254Y-78058002D01*
X144818419Y-78073193D01*
X144747526Y-78118812D01*
X144672862Y-78228086D01*
X144646594Y-78357800D01*
X144646594Y-80137800D01*
X144669395Y-80258979D01*
X144741012Y-80370274D01*
X144850286Y-80444938D01*
X144980000Y-80471206D01*
X145023000Y-80471206D01*
X145023000Y-80552436D01*
X144940725Y-80586431D01*
X144637496Y-80889132D01*
X144473187Y-81284832D01*
X144472813Y-81713289D01*
X140248580Y-81713289D01*
X138706617Y-80171327D01*
X138713406Y-80137800D01*
X138713406Y-78357800D01*
X139566594Y-78357800D01*
X139566594Y-80137800D01*
X139589395Y-80258979D01*
X139661012Y-80370274D01*
X139770286Y-80444938D01*
X139900000Y-80471206D01*
X140920000Y-80471206D01*
X141041179Y-80448405D01*
X141152474Y-80376788D01*
X141227138Y-80267514D01*
X141253406Y-80137800D01*
X141253406Y-79727550D01*
X142013000Y-79727550D01*
X142013000Y-80222736D01*
X142078007Y-80379676D01*
X142198124Y-80499793D01*
X142355065Y-80564800D01*
X142588250Y-80564800D01*
X142695000Y-80458050D01*
X142695000Y-79620800D01*
X143205000Y-79620800D01*
X143205000Y-80458050D01*
X143311750Y-80564800D01*
X143544935Y-80564800D01*
X143701876Y-80499793D01*
X143821993Y-80379676D01*
X143887000Y-80222736D01*
X143887000Y-79727550D01*
X143780250Y-79620800D01*
X143205000Y-79620800D01*
X142695000Y-79620800D01*
X142119750Y-79620800D01*
X142013000Y-79727550D01*
X141253406Y-79727550D01*
X141253406Y-78357800D01*
X141237425Y-78272864D01*
X142013000Y-78272864D01*
X142013000Y-78768050D01*
X142119750Y-78874800D01*
X142695000Y-78874800D01*
X142695000Y-78854800D01*
X143205000Y-78854800D01*
X143205000Y-78874800D01*
X143780250Y-78874800D01*
X143887000Y-78768050D01*
X143887000Y-78272864D01*
X143821993Y-78115924D01*
X143701876Y-77995807D01*
X143668081Y-77981809D01*
X143759459Y-77761746D01*
X143759740Y-77439667D01*
X143636746Y-77141998D01*
X143409200Y-76914055D01*
X143111746Y-76790541D01*
X142789667Y-76790260D01*
X142491998Y-76913254D01*
X142264055Y-77140800D01*
X142140541Y-77438254D01*
X142140260Y-77760333D01*
X142231793Y-77981861D01*
X142198124Y-77995807D01*
X142078007Y-78115924D01*
X142013000Y-78272864D01*
X141237425Y-78272864D01*
X141230605Y-78236621D01*
X141158988Y-78125326D01*
X141082237Y-78072884D01*
X141095945Y-78059200D01*
X141219459Y-77761746D01*
X141219740Y-77439667D01*
X141096746Y-77141998D01*
X140869200Y-76914055D01*
X140571746Y-76790541D01*
X140249667Y-76790260D01*
X139951998Y-76913254D01*
X139724055Y-77140800D01*
X139600541Y-77438254D01*
X139600260Y-77760333D01*
X139723254Y-78058002D01*
X139738419Y-78073193D01*
X139667526Y-78118812D01*
X139592862Y-78228086D01*
X139566594Y-78357800D01*
X138713406Y-78357800D01*
X138690605Y-78236621D01*
X138618988Y-78125326D01*
X138542237Y-78072884D01*
X138555945Y-78059200D01*
X138679459Y-77761746D01*
X138679740Y-77439667D01*
X138556746Y-77141998D01*
X138329200Y-76914055D01*
X138031746Y-76790541D01*
X137709667Y-76790260D01*
X137411998Y-76913254D01*
X137184055Y-77140800D01*
X137060541Y-77438254D01*
X137060260Y-77760333D01*
X137183254Y-78058002D01*
X137198419Y-78073193D01*
X137127526Y-78118812D01*
X137052862Y-78228086D01*
X137026594Y-78357800D01*
X137026594Y-80137800D01*
X137049395Y-80258979D01*
X137121012Y-80370274D01*
X137230286Y-80444938D01*
X137360000Y-80471206D01*
X137515916Y-80471206D01*
X138307710Y-81263000D01*
X136498290Y-81263000D01*
X135857000Y-80621710D01*
X135857000Y-80468007D01*
X135961179Y-80448405D01*
X136072474Y-80376788D01*
X136147138Y-80267514D01*
X136173406Y-80137800D01*
X136173406Y-78357800D01*
X136150605Y-78236621D01*
X136078988Y-78125326D01*
X136002237Y-78072884D01*
X136015945Y-78059200D01*
X136139459Y-77761746D01*
X136139740Y-77439667D01*
X136016746Y-77141998D01*
X135789200Y-76914055D01*
X135491746Y-76790541D01*
X135185544Y-76790274D01*
X135275789Y-76572939D01*
X135276211Y-76089184D01*
X135185429Y-75869474D01*
X135490333Y-75869740D01*
X135788002Y-75746746D01*
X136015945Y-75519200D01*
X136139459Y-75221746D01*
X136139740Y-74899667D01*
X136016746Y-74601998D01*
X136001581Y-74586807D01*
X136072474Y-74541188D01*
X136147138Y-74431914D01*
X136173406Y-74302200D01*
X136173406Y-73891950D01*
X136933000Y-73891950D01*
X136933000Y-74387136D01*
X136998007Y-74544076D01*
X137118124Y-74664193D01*
X137151919Y-74678191D01*
X137060541Y-74898254D01*
X137060260Y-75220333D01*
X137183254Y-75518002D01*
X137410800Y-75745945D01*
X137708254Y-75869459D01*
X138030333Y-75869740D01*
X138328002Y-75746746D01*
X138555945Y-75519200D01*
X138679459Y-75221746D01*
X138679740Y-74899667D01*
X138588207Y-74678139D01*
X138621876Y-74664193D01*
X138741993Y-74544076D01*
X138807000Y-74387136D01*
X138807000Y-73891950D01*
X138700250Y-73785200D01*
X138125000Y-73785200D01*
X138125000Y-73805200D01*
X137615000Y-73805200D01*
X137615000Y-73785200D01*
X137039750Y-73785200D01*
X136933000Y-73891950D01*
X136173406Y-73891950D01*
X136173406Y-72620600D01*
X136933000Y-72620600D01*
X136933000Y-72932450D01*
X136933000Y-72932450D01*
G37*
X136933000Y-72932450D02*
X137039750Y-73039200D01*
X137615000Y-73039200D01*
X137615000Y-73019200D01*
X138125000Y-73019200D01*
X138125000Y-73039200D01*
X138700250Y-73039200D01*
X138807000Y-72932450D01*
X138807000Y-72620600D01*
X139566594Y-72620600D01*
X139566594Y-74302200D01*
X139589395Y-74423379D01*
X139661012Y-74534674D01*
X139737763Y-74587116D01*
X139724055Y-74600800D01*
X139600541Y-74898254D01*
X139600260Y-75220333D01*
X139723254Y-75518002D01*
X139950800Y-75745945D01*
X140248254Y-75869459D01*
X140570333Y-75869740D01*
X140868002Y-75746746D01*
X141095945Y-75519200D01*
X141219459Y-75221746D01*
X141219740Y-74899667D01*
X141096746Y-74601998D01*
X141081581Y-74586807D01*
X141152474Y-74541188D01*
X141227138Y-74431914D01*
X141253406Y-74302200D01*
X141253406Y-72620600D01*
X142106594Y-72620600D01*
X142106594Y-74302200D01*
X142129395Y-74423379D01*
X142201012Y-74534674D01*
X142277763Y-74587116D01*
X142264055Y-74600800D01*
X142140541Y-74898254D01*
X142140260Y-75220333D01*
X142263254Y-75518002D01*
X142490800Y-75745945D01*
X142788254Y-75869459D01*
X143110333Y-75869740D01*
X143408002Y-75746746D01*
X143635945Y-75519200D01*
X143759459Y-75221746D01*
X143759740Y-74899667D01*
X143636746Y-74601998D01*
X143621581Y-74586807D01*
X143692474Y-74541188D01*
X143767138Y-74431914D01*
X143793406Y-74302200D01*
X143793406Y-72620600D01*
X144646594Y-72620600D01*
X144646594Y-74302200D01*
X144669395Y-74423379D01*
X144741012Y-74534674D01*
X144817763Y-74587116D01*
X144804055Y-74600800D01*
X144680541Y-74898254D01*
X144680260Y-75220333D01*
X144803254Y-75518002D01*
X145030800Y-75745945D01*
X145328254Y-75869459D01*
X145650333Y-75869740D01*
X145948002Y-75746746D01*
X146175945Y-75519200D01*
X146299459Y-75221746D01*
X146299740Y-74899667D01*
X146176746Y-74601998D01*
X146161581Y-74586807D01*
X146232474Y-74541188D01*
X146307138Y-74431914D01*
X146333406Y-74302200D01*
X146333406Y-73891950D01*
X147093000Y-73891950D01*
X147093000Y-74387136D01*
X147158007Y-74544076D01*
X147278124Y-74664193D01*
X147311919Y-74678191D01*
X147220541Y-74898254D01*
X147220260Y-75220333D01*
X147343254Y-75518002D01*
X147570800Y-75745945D01*
X147868254Y-75869459D01*
X148190333Y-75869740D01*
X148488002Y-75746746D01*
X148715945Y-75519200D01*
X148839459Y-75221746D01*
X148839740Y-74899667D01*
X148748207Y-74678139D01*
X148781876Y-74664193D01*
X148901993Y-74544076D01*
X148967000Y-74387136D01*
X148967000Y-73891950D01*
X148860250Y-73785200D01*
X148285000Y-73785200D01*
X148285000Y-73805200D01*
X147775000Y-73805200D01*
X147775000Y-73785200D01*
X147199750Y-73785200D01*
X147093000Y-73891950D01*
X146333406Y-73891950D01*
X146333406Y-72620600D01*
X147093000Y-72620600D01*
X147093000Y-72932450D01*
X147199750Y-73039200D01*
X147775000Y-73039200D01*
X147775000Y-73019200D01*
X148285000Y-73019200D01*
X148285000Y-73039200D01*
X148860250Y-73039200D01*
X148967000Y-72932450D01*
X148967000Y-72620600D01*
X149726594Y-72620600D01*
X149726594Y-74302200D01*
X149749395Y-74423379D01*
X149821012Y-74534674D01*
X149897763Y-74587116D01*
X149884055Y-74600800D01*
X149760541Y-74898254D01*
X149760260Y-75220333D01*
X149883254Y-75518002D01*
X150110800Y-75745945D01*
X150408254Y-75869459D01*
X150730333Y-75869740D01*
X151028002Y-75746746D01*
X151255945Y-75519200D01*
X151379459Y-75221746D01*
X151379740Y-74899667D01*
X151256746Y-74601998D01*
X151241581Y-74586807D01*
X151312474Y-74541188D01*
X151387138Y-74431914D01*
X151413406Y-74302200D01*
X151413406Y-72620600D01*
X152266594Y-72620600D01*
X152266594Y-74302200D01*
X152289395Y-74423379D01*
X152361012Y-74534674D01*
X152437763Y-74587116D01*
X152424055Y-74600800D01*
X152300541Y-74898254D01*
X152300260Y-75220333D01*
X152423254Y-75518002D01*
X152650800Y-75745945D01*
X152948254Y-75869459D01*
X153270333Y-75869740D01*
X153568002Y-75746746D01*
X153795945Y-75519200D01*
X153919459Y-75221746D01*
X153919740Y-74899667D01*
X153796746Y-74601998D01*
X153781581Y-74586807D01*
X153852474Y-74541188D01*
X153927138Y-74431914D01*
X153953406Y-74302200D01*
X153953406Y-73891950D01*
X154713000Y-73891950D01*
X154713000Y-74387136D01*
X154778007Y-74544076D01*
X154898124Y-74664193D01*
X154931919Y-74678191D01*
X154840541Y-74898254D01*
X154840260Y-75220333D01*
X154963254Y-75518002D01*
X155190800Y-75745945D01*
X155488254Y-75869459D01*
X155810333Y-75869740D01*
X156108002Y-75746746D01*
X156335945Y-75519200D01*
X156459459Y-75221746D01*
X156459740Y-74899667D01*
X156368207Y-74678139D01*
X156401876Y-74664193D01*
X156521993Y-74544076D01*
X156587000Y-74387136D01*
X156587000Y-73891950D01*
X156480250Y-73785200D01*
X155905000Y-73785200D01*
X155905000Y-73805200D01*
X155395000Y-73805200D01*
X155395000Y-73785200D01*
X154819750Y-73785200D01*
X154713000Y-73891950D01*
X153953406Y-73891950D01*
X153953406Y-72620600D01*
X154713000Y-72620600D01*
X154713000Y-72932450D01*
X154819750Y-73039200D01*
X155395000Y-73039200D01*
X155395000Y-73019200D01*
X155905000Y-73019200D01*
X155905000Y-73039200D01*
X156480250Y-73039200D01*
X156587000Y-72932450D01*
X156587000Y-72620600D01*
X157346594Y-72620600D01*
X157346594Y-74302200D01*
X157369395Y-74423379D01*
X157441012Y-74534674D01*
X157517763Y-74587116D01*
X157504055Y-74600800D01*
X157380541Y-74898254D01*
X157380260Y-75220333D01*
X157503254Y-75518002D01*
X157730800Y-75745945D01*
X158028254Y-75869459D01*
X158350333Y-75869740D01*
X158648002Y-75746746D01*
X158875945Y-75519200D01*
X158943000Y-75357714D01*
X158943000Y-75780000D01*
X158983115Y-75981675D01*
X159097355Y-76152645D01*
X159627355Y-76682645D01*
X159798325Y-76796885D01*
X159831785Y-76803540D01*
X160000000Y-76837000D01*
X160456547Y-76837000D01*
X160271998Y-76913254D01*
X160044055Y-77140800D01*
X159920541Y-77438254D01*
X159920260Y-77760333D01*
X160043254Y-78058002D01*
X160058419Y-78073193D01*
X159987526Y-78118812D01*
X159912862Y-78228086D01*
X159886594Y-78357800D01*
X159886594Y-80137800D01*
X159909395Y-80258979D01*
X159981012Y-80370274D01*
X160090286Y-80444938D01*
X160203000Y-80467763D01*
X160203000Y-81416240D01*
X159015076Y-80228316D01*
X159033406Y-80137800D01*
X159033406Y-78357800D01*
X159010605Y-78236621D01*
X158938988Y-78125326D01*
X158862237Y-78072884D01*
X158875945Y-78059200D01*
X158999459Y-77761746D01*
X158999740Y-77439667D01*
X158876746Y-77141998D01*
X158649200Y-76914055D01*
X158351746Y-76790541D01*
X158029667Y-76790260D01*
X157731998Y-76913254D01*
X157504055Y-77140800D01*
X157380541Y-77438254D01*
X157380260Y-77760333D01*
X157503254Y-78058002D01*
X157518419Y-78073193D01*
X157447526Y-78118812D01*
X157372862Y-78228086D01*
X157346594Y-78357800D01*
X157346594Y-80137800D01*
X157360802Y-80213312D01*
X156493406Y-79345916D01*
X156493406Y-78357800D01*
X156470605Y-78236621D01*
X156398988Y-78125326D01*
X156322237Y-78072884D01*
X156335945Y-78059200D01*
X156459459Y-77761746D01*
X156459740Y-77439667D01*
X156336746Y-77141998D01*
X156109200Y-76914055D01*
X155811746Y-76790541D01*
X155489667Y-76790260D01*
X155191998Y-76913254D01*
X154964055Y-77140800D01*
X154840541Y-77438254D01*
X154840260Y-77760333D01*
X154963254Y-78058002D01*
X154978419Y-78073193D01*
X154907526Y-78118812D01*
X154832862Y-78228086D01*
X154806594Y-78357800D01*
X154806594Y-80137800D01*
X154828346Y-80253401D01*
X154635168Y-80173187D01*
X154206711Y-80172813D01*
X154122782Y-80207492D01*
X153953406Y-80038116D01*
X153953406Y-78357800D01*
X153930605Y-78236621D01*
X153858988Y-78125326D01*
X153782237Y-78072884D01*
X153795945Y-78059200D01*
X153919459Y-77761746D01*
X153919740Y-77439667D01*
X153796746Y-77141998D01*
X153569200Y-76914055D01*
X153271746Y-76790541D01*
X152949667Y-76790260D01*
X152651998Y-76913254D01*
X152424055Y-77140800D01*
X152300541Y-77438254D01*
X152300260Y-77760333D01*
X152423254Y-78058002D01*
X152438419Y-78073193D01*
X152367526Y-78118812D01*
X152292862Y-78228086D01*
X152266594Y-78357800D01*
X152266594Y-80137800D01*
X152289395Y-80258979D01*
X152361012Y-80370274D01*
X152470286Y-80444938D01*
X152600000Y-80471206D01*
X152895916Y-80471206D01*
X153377326Y-80952616D01*
X153343187Y-81034832D01*
X153342813Y-81463289D01*
X153506431Y-81859275D01*
X153809132Y-82162504D01*
X154204832Y-82326813D01*
X154633289Y-82327187D01*
X155029275Y-82163569D01*
X155332504Y-81860868D01*
X155496813Y-81465168D01*
X155497187Y-81036711D01*
X155333569Y-80640725D01*
X155164345Y-80471206D01*
X156128116Y-80471206D01*
X162279555Y-86622645D01*
X162450525Y-86736885D01*
X162483985Y-86743540D01*
X162652200Y-86777000D01*
X168312436Y-86777000D01*
X168346431Y-86859275D01*
X168649132Y-87162504D01*
X169044832Y-87326813D01*
X169473289Y-87327187D01*
X169869275Y-87163569D01*
X170172504Y-86860868D01*
X170336813Y-86465168D01*
X170337187Y-86036711D01*
X170173569Y-85640725D01*
X169870868Y-85337496D01*
X169677012Y-85257000D01*
X176950000Y-85257000D01*
X177010540Y-85244958D01*
X177072219Y-85242632D01*
X177110432Y-85225088D01*
X177151674Y-85216885D01*
X177202997Y-85182592D01*
X177259091Y-85156839D01*
X178237563Y-84448290D01*
X178474832Y-84546813D01*
X178903289Y-84547187D01*
X179299275Y-84383569D01*
X179602504Y-84080868D01*
X179766813Y-83685168D01*
X179767187Y-83256711D01*
X179603569Y-82860725D01*
X179549938Y-82807000D01*
X183871710Y-82807000D01*
X184383000Y-83318290D01*
X184383000Y-88550000D01*
X184423115Y-88751675D01*
X184537355Y-88922645D01*
X186053000Y-90438291D01*
X186053000Y-92362436D01*
X185970725Y-92396431D01*
X185667496Y-92699132D01*
X185503187Y-93094832D01*
X185502813Y-93523289D01*
X185666431Y-93919275D01*
X185969132Y-94222504D01*
X186364832Y-94386813D01*
X186793289Y-94387187D01*
X187189275Y-94223569D01*
X187492504Y-93920868D01*
X187656813Y-93525168D01*
X187657187Y-93096711D01*
X187493569Y-92700725D01*
X187190868Y-92397496D01*
X187107000Y-92362671D01*
X187107000Y-90220000D01*
X187066885Y-90018326D01*
X187009747Y-89932813D01*
X186952646Y-89847355D01*
X186392162Y-89286872D01*
X186753289Y-89287187D01*
X187149275Y-89123569D01*
X187452504Y-88820868D01*
X187616813Y-88425168D01*
X187617187Y-87996711D01*
X187582508Y-87912782D01*
X187972645Y-87522646D01*
X188086884Y-87351675D01*
X188086885Y-87351674D01*
X188127000Y-87150000D01*
X188127000Y-83060000D01*
X188117388Y-83011675D01*
X188086885Y-82858325D01*
X187972645Y-82687355D01*
X186582645Y-81297355D01*
X186411675Y-81183115D01*
X186210000Y-81143000D01*
X165898290Y-81143000D01*
X165207831Y-80452541D01*
X165300000Y-80471206D01*
X166320000Y-80471206D01*
X166441179Y-80448405D01*
X166552474Y-80376788D01*
X166627138Y-80267514D01*
X166653406Y-80137800D01*
X166653406Y-78357800D01*
X167506594Y-78357800D01*
X167506594Y-80137800D01*
X167529395Y-80258979D01*
X167601012Y-80370274D01*
X167710286Y-80444938D01*
X167840000Y-80471206D01*
X168860000Y-80471206D01*
X168981179Y-80448405D01*
X169092474Y-80376788D01*
X169167138Y-80267514D01*
X169193406Y-80137800D01*
X169193406Y-78357800D01*
X170046594Y-78357800D01*
X170046594Y-80137800D01*
X170069395Y-80258979D01*
X170141012Y-80370274D01*
X170250286Y-80444938D01*
X170380000Y-80471206D01*
X171400000Y-80471206D01*
X171521179Y-80448405D01*
X171632474Y-80376788D01*
X171707138Y-80267514D01*
X171733406Y-80137800D01*
X171733406Y-78357800D01*
X172586594Y-78357800D01*
X172586594Y-80137800D01*
X172609395Y-80258979D01*
X172681012Y-80370274D01*
X172790286Y-80444938D01*
X172920000Y-80471206D01*
X173940000Y-80471206D01*
X174061179Y-80448405D01*
X174172474Y-80376788D01*
X174247138Y-80267514D01*
X174273406Y-80137800D01*
X174273406Y-78357800D01*
X175126594Y-78357800D01*
X175126594Y-80137800D01*
X175149395Y-80258979D01*
X175221012Y-80370274D01*
X175330286Y-80444938D01*
X175460000Y-80471206D01*
X176480000Y-80471206D01*
X176601179Y-80448405D01*
X176712474Y-80376788D01*
X176787138Y-80267514D01*
X176813406Y-80137800D01*
X176813406Y-78357800D01*
X176790605Y-78236621D01*
X176718988Y-78125326D01*
X176642237Y-78072884D01*
X176655945Y-78059200D01*
X176779459Y-77761746D01*
X176779740Y-77439667D01*
X176656746Y-77141998D01*
X176429200Y-76914055D01*
X176131746Y-76790541D01*
X175809667Y-76790260D01*
X175511998Y-76913254D01*
X175284055Y-77140800D01*
X175160541Y-77438254D01*
X175160260Y-77760333D01*
X175283254Y-78058002D01*
X175298419Y-78073193D01*
X175227526Y-78118812D01*
X175152862Y-78228086D01*
X175126594Y-78357800D01*
X174273406Y-78357800D01*
X174250605Y-78236621D01*
X174178988Y-78125326D01*
X174102237Y-78072884D01*
X174115945Y-78059200D01*
X174239459Y-77761746D01*
X174239740Y-77439667D01*
X174116746Y-77141998D01*
X173889200Y-76914055D01*
X173591746Y-76790541D01*
X173269667Y-76790260D01*
X172971998Y-76913254D01*
X172744055Y-77140800D01*
X172620541Y-77438254D01*
X172620260Y-77760333D01*
X172743254Y-78058002D01*
X172758419Y-78073193D01*
X172687526Y-78118812D01*
X172612862Y-78228086D01*
X172586594Y-78357800D01*
X171733406Y-78357800D01*
X171710605Y-78236621D01*
X171638988Y-78125326D01*
X171562237Y-78072884D01*
X171575945Y-78059200D01*
X171699459Y-77761746D01*
X171699740Y-77439667D01*
X171576746Y-77141998D01*
X171349200Y-76914055D01*
X171051746Y-76790541D01*
X170729667Y-76790260D01*
X170431998Y-76913254D01*
X170204055Y-77140800D01*
X170080541Y-77438254D01*
X170080260Y-77760333D01*
X170203254Y-78058002D01*
X170218419Y-78073193D01*
X170147526Y-78118812D01*
X170072862Y-78228086D01*
X170046594Y-78357800D01*
X169193406Y-78357800D01*
X169170605Y-78236621D01*
X169098988Y-78125326D01*
X169022237Y-78072884D01*
X169035945Y-78059200D01*
X169159459Y-77761746D01*
X169159740Y-77439667D01*
X169036746Y-77141998D01*
X168809200Y-76914055D01*
X168511746Y-76790541D01*
X168189667Y-76790260D01*
X167891998Y-76913254D01*
X167664055Y-77140800D01*
X167540541Y-77438254D01*
X167540260Y-77760333D01*
X167663254Y-78058002D01*
X167678419Y-78073193D01*
X167607526Y-78118812D01*
X167532862Y-78228086D01*
X167506594Y-78357800D01*
X166653406Y-78357800D01*
X166630605Y-78236621D01*
X166558988Y-78125326D01*
X166482237Y-78072884D01*
X166495945Y-78059200D01*
X166619459Y-77761746D01*
X166619740Y-77439667D01*
X166496746Y-77141998D01*
X166269200Y-76914055D01*
X165971746Y-76790541D01*
X165649667Y-76790260D01*
X165351998Y-76913254D01*
X165124055Y-77140800D01*
X165027000Y-77374534D01*
X165027000Y-77160000D01*
X164986885Y-76958326D01*
X164872645Y-76787355D01*
X164082645Y-75997355D01*
X163911675Y-75883115D01*
X163710000Y-75843000D01*
X163495049Y-75843000D01*
X163728002Y-75746746D01*
X163955945Y-75519200D01*
X164079459Y-75221746D01*
X164079740Y-74899667D01*
X163956746Y-74601998D01*
X163941581Y-74586807D01*
X164012474Y-74541188D01*
X164087138Y-74431914D01*
X164113406Y-74302200D01*
X164113406Y-72620600D01*
X164966594Y-72620600D01*
X164966594Y-74302200D01*
X164989395Y-74423379D01*
X165061012Y-74534674D01*
X165137763Y-74587116D01*
X165124055Y-74600800D01*
X165000541Y-74898254D01*
X165000260Y-75220333D01*
X165123254Y-75518002D01*
X165350800Y-75745945D01*
X165648254Y-75869459D01*
X165970333Y-75869740D01*
X166268002Y-75746746D01*
X166495945Y-75519200D01*
X166619459Y-75221746D01*
X166619740Y-74899667D01*
X166496746Y-74601998D01*
X166481581Y-74586807D01*
X166552474Y-74541188D01*
X166627138Y-74431914D01*
X166653406Y-74302200D01*
X166653406Y-73891950D01*
X167413000Y-73891950D01*
X167413000Y-74387136D01*
X167478007Y-74544076D01*
X167598124Y-74664193D01*
X167631919Y-74678191D01*
X167540541Y-74898254D01*
X167540260Y-75220333D01*
X167663254Y-75518002D01*
X167890800Y-75745945D01*
X168188254Y-75869459D01*
X168510333Y-75869740D01*
X168808002Y-75746746D01*
X169035945Y-75519200D01*
X169159459Y-75221746D01*
X169159740Y-74899667D01*
X169068207Y-74678139D01*
X169101876Y-74664193D01*
X169221993Y-74544076D01*
X169287000Y-74387136D01*
X169287000Y-73891950D01*
X169180250Y-73785200D01*
X168605000Y-73785200D01*
X168605000Y-73805200D01*
X168095000Y-73805200D01*
X168095000Y-73785200D01*
X167519750Y-73785200D01*
X167413000Y-73891950D01*
X166653406Y-73891950D01*
X166653406Y-72620600D01*
X167413000Y-72620600D01*
X167413000Y-72932450D01*
X167519750Y-73039200D01*
X168095000Y-73039200D01*
X168095000Y-73019200D01*
X168605000Y-73019200D01*
X168605000Y-73039200D01*
X169180250Y-73039200D01*
X169287000Y-72932450D01*
X169287000Y-72620600D01*
X170046594Y-72620600D01*
X170046594Y-74302200D01*
X170069395Y-74423379D01*
X170141012Y-74534674D01*
X170217763Y-74587116D01*
X170204055Y-74600800D01*
X170080541Y-74898254D01*
X170080260Y-75220333D01*
X170203254Y-75518002D01*
X170430800Y-75745945D01*
X170728254Y-75869459D01*
X171050333Y-75869740D01*
X171348002Y-75746746D01*
X171575945Y-75519200D01*
X171699459Y-75221746D01*
X171699740Y-74899667D01*
X171576746Y-74601998D01*
X171561581Y-74586807D01*
X171632474Y-74541188D01*
X171707138Y-74431914D01*
X171733406Y-74302200D01*
X171733406Y-73891950D01*
X172493000Y-73891950D01*
X172493000Y-74387136D01*
X172558007Y-74544076D01*
X172678124Y-74664193D01*
X172711919Y-74678191D01*
X172620541Y-74898254D01*
X172620260Y-75220333D01*
X172743254Y-75518002D01*
X172970800Y-75745945D01*
X173268254Y-75869459D01*
X173590333Y-75869740D01*
X173888002Y-75746746D01*
X174115945Y-75519200D01*
X174239459Y-75221746D01*
X174239740Y-74899667D01*
X174148207Y-74678139D01*
X174181876Y-74664193D01*
X174301993Y-74544076D01*
X174367000Y-74387136D01*
X174367000Y-73891950D01*
X174260250Y-73785200D01*
X173685000Y-73785200D01*
X173685000Y-73805200D01*
X173175000Y-73805200D01*
X173175000Y-73785200D01*
X172599750Y-73785200D01*
X172493000Y-73891950D01*
X171733406Y-73891950D01*
X171733406Y-72620600D01*
X172493000Y-72620600D01*
X172493000Y-72932450D01*
X172599750Y-73039200D01*
X173175000Y-73039200D01*
X173175000Y-73019200D01*
X173685000Y-73019200D01*
X173685000Y-73039200D01*
X174260250Y-73039200D01*
X174367000Y-72932450D01*
X174367000Y-72620600D01*
X175126594Y-72620600D01*
X175126594Y-74302200D01*
X175149395Y-74423379D01*
X175221012Y-74534674D01*
X175297763Y-74587116D01*
X175284055Y-74600800D01*
X175160541Y-74898254D01*
X175160260Y-75220333D01*
X175283254Y-75518002D01*
X175510800Y-75745945D01*
X175808254Y-75869459D01*
X176130333Y-75869740D01*
X176428002Y-75746746D01*
X176655945Y-75519200D01*
X176779459Y-75221746D01*
X176779740Y-74899667D01*
X176656746Y-74601998D01*
X176641581Y-74586807D01*
X176712474Y-74541188D01*
X176787138Y-74431914D01*
X176813406Y-74302200D01*
X176813406Y-72620600D01*
X177666594Y-72620600D01*
X177666594Y-74302200D01*
X177689395Y-74423379D01*
X177761012Y-74534674D01*
X177837763Y-74587116D01*
X177824055Y-74600800D01*
X177700541Y-74898254D01*
X177700260Y-75220333D01*
X177823254Y-75518002D01*
X178050800Y-75745945D01*
X178348254Y-75869459D01*
X178654456Y-75869726D01*
X178564211Y-76087061D01*
X178563789Y-76570816D01*
X178654571Y-76790526D01*
X178349667Y-76790260D01*
X178051998Y-76913254D01*
X177824055Y-77140800D01*
X177700541Y-77438254D01*
X177700260Y-77760333D01*
X177823254Y-78058002D01*
X177838419Y-78073193D01*
X177767526Y-78118812D01*
X177692862Y-78228086D01*
X177666594Y-78357800D01*
X177666594Y-80137800D01*
X177689395Y-80258979D01*
X177761012Y-80370274D01*
X177870286Y-80444938D01*
X178000000Y-80471206D01*
X179020000Y-80471206D01*
X179141179Y-80448405D01*
X179252474Y-80376788D01*
X179327138Y-80267514D01*
X179353406Y-80137800D01*
X179353406Y-79727550D01*
X180113000Y-79727550D01*
X180113000Y-80222736D01*
X180178007Y-80379676D01*
X180298124Y-80499793D01*
X180455065Y-80564800D01*
X180688250Y-80564800D01*
X180795000Y-80458050D01*
X180795000Y-79620800D01*
X181305000Y-79620800D01*
X181305000Y-80458050D01*
X181411750Y-80564800D01*
X181644935Y-80564800D01*
X181801876Y-80499793D01*
X181921993Y-80379676D01*
X181987000Y-80222736D01*
X181987000Y-79727550D01*
X181880250Y-79620800D01*
X181305000Y-79620800D01*
X180795000Y-79620800D01*
X180219750Y-79620800D01*
X180113000Y-79727550D01*
X179353406Y-79727550D01*
X179353406Y-78357800D01*
X179330605Y-78236621D01*
X179258988Y-78125326D01*
X179182237Y-78072884D01*
X179195945Y-78059200D01*
X179319459Y-77761746D01*
X179319726Y-77455544D01*
X179537061Y-77545789D01*
X180020816Y-77546211D01*
X180240526Y-77455429D01*
X180240260Y-77760333D01*
X180331793Y-77981861D01*
X180298124Y-77995807D01*
X180178007Y-78115924D01*
X180113000Y-78272864D01*
X180113000Y-78768050D01*
X180219750Y-78874800D01*
X180795000Y-78874800D01*
X180795000Y-78854800D01*
X181305000Y-78854800D01*
X181305000Y-78874800D01*
X181880250Y-78874800D01*
X181987000Y-78768050D01*
X181987000Y-78272864D01*
X181921993Y-78115924D01*
X181801876Y-77995807D01*
X181768081Y-77981809D01*
X181859459Y-77761746D01*
X181859740Y-77439667D01*
X181736746Y-77141998D01*
X181509200Y-76914055D01*
X181211746Y-76790541D01*
X180905544Y-76790274D01*
X180995789Y-76572939D01*
X180996211Y-76089184D01*
X180905429Y-75869474D01*
X181210333Y-75869740D01*
X181508002Y-75746746D01*
X181735945Y-75519200D01*
X181859459Y-75221746D01*
X181859740Y-74899667D01*
X181736746Y-74601998D01*
X181721581Y-74586807D01*
X181792474Y-74541188D01*
X181867138Y-74431914D01*
X181893406Y-74302200D01*
X181893406Y-72620600D01*
X186412583Y-72620600D01*
X187353461Y-72786492D01*
X188157016Y-73250630D01*
X188751757Y-73960230D01*
X189073389Y-74844806D01*
X189114100Y-75305819D01*
X189114100Y-75450536D01*
X188727313Y-74514439D01*
X187820336Y-73605877D01*
X186634706Y-73113561D01*
X185350926Y-73112441D01*
X184164439Y-73602687D01*
X183255877Y-74509664D01*
X182763561Y-75695294D01*
X182762441Y-76979074D01*
X183252687Y-78165561D01*
X184159664Y-79074123D01*
X185345294Y-79566439D01*
X186629074Y-79567559D01*
X187815561Y-79077313D01*
X188724123Y-78170336D01*
X189114100Y-77231166D01*
X189114100Y-124460536D01*
X188727313Y-123524439D01*
X187820336Y-122615877D01*
X186634706Y-122123561D01*
X185350926Y-122122441D01*
X184164439Y-122612687D01*
X183255877Y-123519664D01*
X182763561Y-124705294D01*
X182762441Y-125989074D01*
X183252687Y-127175561D01*
X184159664Y-128084123D01*
X185080772Y-128466600D01*
X128883414Y-128466600D01*
X129825561Y-128077313D01*
X130734123Y-127170336D01*
X131226439Y-125984706D01*
X131227559Y-124700926D01*
X130737313Y-123514439D01*
X129830336Y-122605877D01*
X128644706Y-122113561D01*
X127360926Y-122112441D01*
X126174439Y-122602687D01*
X125265877Y-123509664D01*
X124773561Y-124695294D01*
X124772571Y-125829935D01*
X124768100Y-125778851D01*
X124768100Y-110322417D01*
X124813471Y-110065089D01*
X124929491Y-109864174D01*
X125107237Y-109715084D01*
X125338444Y-109630854D01*
X125455829Y-109620600D01*
X128439100Y-109620600D01*
X128455380Y-109617362D01*
X128471877Y-109619172D01*
X128636877Y-109604772D01*
X128684228Y-109590982D01*
X128732983Y-109583486D01*
X129044982Y-109469986D01*
X129101149Y-109435916D01*
X129158731Y-109404247D01*
X129410731Y-109192347D01*
X129451496Y-109141447D01*
X129494509Y-109092443D01*
X129659509Y-108806943D01*
X129680619Y-108744844D01*
X129704378Y-108683733D01*
X129762378Y-108354633D01*
X129761655Y-108321604D01*
X129768100Y-108289200D01*
X129768100Y-106883289D01*
X140802813Y-106883289D01*
X140966431Y-107279275D01*
X141269132Y-107582504D01*
X141353000Y-107617329D01*
X141353000Y-118410000D01*
X141393115Y-118611675D01*
X141507355Y-118782645D01*
X144577326Y-121852616D01*
X144543187Y-121934832D01*
X144542813Y-122363289D01*
X144706431Y-122759275D01*
X145009132Y-123062504D01*
X145404832Y-123226813D01*
X145833289Y-123227187D01*
X146229275Y-123063569D01*
X146532504Y-122760868D01*
X146696813Y-122365168D01*
X146697187Y-121936711D01*
X146533569Y-121540725D01*
X146230868Y-121237496D01*
X145835168Y-121073187D01*
X145406711Y-121072813D01*
X145322782Y-121107492D01*
X142407000Y-118191710D01*
X142407000Y-117350000D01*
X146743000Y-117350000D01*
X146743000Y-120700000D01*
X146783115Y-120901675D01*
X146897355Y-121072645D01*
X148237355Y-122412645D01*
X148408325Y-122526885D01*
X148441785Y-122533540D01*
X148610000Y-122567000D01*
X158312436Y-122567000D01*
X158346431Y-122649275D01*
X158649132Y-122952504D01*
X159044832Y-123116813D01*
X159473289Y-123117187D01*
X159869275Y-122953569D01*
X160172504Y-122650868D01*
X160336813Y-122255168D01*
X160337187Y-121826711D01*
X160173569Y-121430725D01*
X159870868Y-121127496D01*
X159475168Y-120963187D01*
X159046711Y-120962813D01*
X158650725Y-121126431D01*
X158347496Y-121429132D01*
X158312671Y-121513000D01*
X158240072Y-121513000D01*
X158412504Y-121340868D01*
X158576813Y-120945168D01*
X158577187Y-120516711D01*
X158413569Y-120120725D01*
X158110868Y-119817496D01*
X157715168Y-119653187D01*
X157286711Y-119652813D01*
X156890725Y-119816431D01*
X156587496Y-120119132D01*
X156552671Y-120203000D01*
X149368290Y-120203000D01*
X149089449Y-119924159D01*
X149384832Y-120046813D01*
X149813289Y-120047187D01*
X150209275Y-119883569D01*
X150512504Y-119580868D01*
X150676813Y-119185168D01*
X150677187Y-118756711D01*
X150642508Y-118672782D01*
X156673000Y-112642290D01*
X156673000Y-116282436D01*
X156590725Y-116316431D01*
X156287496Y-116619132D01*
X156123187Y-117014832D01*
X156122813Y-117443289D01*
X156286431Y-117839275D01*
X156589132Y-118142504D01*
X156984832Y-118306813D01*
X157413289Y-118307187D01*
X157809275Y-118143569D01*
X158112504Y-117840868D01*
X158276813Y-117445168D01*
X158277187Y-117016711D01*
X158113569Y-116620725D01*
X157810868Y-116317496D01*
X157727000Y-116282671D01*
X157727000Y-113283289D01*
X157872813Y-113283289D01*
X158036431Y-113679275D01*
X158339132Y-113982504D01*
X158734832Y-114146813D01*
X159163289Y-114147187D01*
X159247218Y-114112508D01*
X166587355Y-121452646D01*
X166716791Y-121539132D01*
X166758326Y-121566885D01*
X166960000Y-121607000D01*
X176412436Y-121607000D01*
X176446431Y-121689275D01*
X176749132Y-121992504D01*
X177144832Y-122156813D01*
X177573289Y-122157187D01*
X177969275Y-121993569D01*
X178272504Y-121690868D01*
X178436813Y-121295168D01*
X178437187Y-120866711D01*
X178273569Y-120470725D01*
X177970868Y-120167496D01*
X177575168Y-120003187D01*
X177146711Y-120002813D01*
X176750725Y-120166431D01*
X176447496Y-120469132D01*
X176412671Y-120553000D01*
X167178291Y-120553000D01*
X159992674Y-113367384D01*
X160026813Y-113285168D01*
X160027187Y-112856711D01*
X159863569Y-112460725D01*
X159560868Y-112157496D01*
X159165168Y-111993187D01*
X158736711Y-111992813D01*
X158340725Y-112156431D01*
X158037496Y-112459132D01*
X157873187Y-112854832D01*
X157872813Y-113283289D01*
X157727000Y-113283289D01*
X157727000Y-112488290D01*
X168542645Y-101672645D01*
X168656885Y-101501674D01*
X168697000Y-101300000D01*
X168697000Y-97997564D01*
X168779275Y-97963569D01*
X169082504Y-97660868D01*
X169246813Y-97265168D01*
X169247187Y-96836711D01*
X169083569Y-96440725D01*
X168780868Y-96137496D01*
X168385168Y-95973187D01*
X167956711Y-95972813D01*
X167758761Y-96054604D01*
X167762504Y-96050868D01*
X167926813Y-95655168D01*
X167927187Y-95226711D01*
X167763569Y-94830725D01*
X167460868Y-94527496D01*
X167065168Y-94363187D01*
X166636711Y-94362813D01*
X166240725Y-94526431D01*
X165937496Y-94829132D01*
X165773187Y-95224832D01*
X165772813Y-95653289D01*
X165936431Y-96049275D01*
X166239132Y-96352504D01*
X166263000Y-96362415D01*
X166263000Y-101561710D01*
X149897384Y-117927326D01*
X149815168Y-117893187D01*
X149562324Y-117892966D01*
X155272645Y-112182645D01*
X155386885Y-112011675D01*
X155409624Y-111897355D01*
X155427000Y-111810000D01*
X155427000Y-108097564D01*
X155509275Y-108063569D01*
X155812504Y-107760868D01*
X155976813Y-107365168D01*
X155977187Y-106936711D01*
X155942508Y-106852782D01*
X159632645Y-103162645D01*
X159746885Y-102991675D01*
X159787000Y-102790000D01*
X159787000Y-100400000D01*
X159746885Y-100198326D01*
X159708978Y-100141594D01*
X159632645Y-100027354D01*
X153632674Y-94027384D01*
X153666813Y-93945168D01*
X153667187Y-93516711D01*
X153503569Y-93120725D01*
X153200868Y-92817496D01*
X152805168Y-92653187D01*
X152376711Y-92652813D01*
X151980725Y-92816431D01*
X151677496Y-93119132D01*
X151513187Y-93514832D01*
X151512813Y-93943289D01*
X151676431Y-94339275D01*
X151979132Y-94642504D01*
X152374832Y-94806813D01*
X152803289Y-94807187D01*
X152887218Y-94772508D01*
X158733000Y-100618291D01*
X158733000Y-102571710D01*
X155197384Y-106107326D01*
X155115168Y-106073187D01*
X154686711Y-106072813D01*
X154290725Y-106236431D01*
X153987496Y-106539132D01*
X153823187Y-106934832D01*
X153822813Y-107363289D01*
X153986431Y-107759275D01*
X154289132Y-108062504D01*
X154373000Y-108097329D01*
X154373000Y-111591710D01*
X153266985Y-112697725D01*
X153267187Y-112466711D01*
X153103569Y-112070725D01*
X152800868Y-111767496D01*
X152405168Y-111603187D01*
X151976711Y-111602813D01*
X151580725Y-111766431D01*
X151277496Y-112069132D01*
X151113187Y-112464832D01*
X151112928Y-112761782D01*
X146897355Y-116977355D01*
X146783115Y-117148325D01*
X146783115Y-117148326D01*
X146743000Y-117350000D01*
X142407000Y-117350000D01*
X142407000Y-107617564D01*
X142489275Y-107583569D01*
X142792504Y-107280868D01*
X142956813Y-106885168D01*
X142957187Y-106456711D01*
X142793569Y-106060725D01*
X142490868Y-105757496D01*
X142095168Y-105593187D01*
X141666711Y-105592813D01*
X141270725Y-105756431D01*
X140967496Y-106059132D01*
X140803187Y-106454832D01*
X140802813Y-106883289D01*
X129768100Y-106883289D01*
X129768100Y-97803289D01*
X130862813Y-97803289D01*
X131026431Y-98199275D01*
X131329132Y-98502504D01*
X131724832Y-98666813D01*
X132153289Y-98667187D01*
X132549275Y-98503569D01*
X132635995Y-98417000D01*
X133697446Y-98417000D01*
X138062918Y-102782472D01*
X138062813Y-102903289D01*
X138226431Y-103299275D01*
X138529132Y-103602504D01*
X138924832Y-103766813D01*
X139353289Y-103767187D01*
X139749275Y-103603569D01*
X140052504Y-103300868D01*
X140216813Y-102905168D01*
X140217187Y-102476711D01*
X140053569Y-102080725D01*
X139750868Y-101777496D01*
X139355168Y-101613187D01*
X139232634Y-101613080D01*
X134624777Y-97005223D01*
X134356479Y-96825952D01*
X134040000Y-96763000D01*
X132636223Y-96763000D01*
X132550868Y-96677496D01*
X132155168Y-96513187D01*
X131726711Y-96512813D01*
X131330725Y-96676431D01*
X131027496Y-96979132D01*
X130863187Y-97374832D01*
X130862813Y-97803289D01*
X129768100Y-97803289D01*
X129768100Y-93295800D01*
X129764949Y-93279960D01*
X129766749Y-93263907D01*
X129752749Y-93099007D01*
X129738869Y-93050928D01*
X129731190Y-93001480D01*
X129617190Y-92689580D01*
X129583265Y-92633844D01*
X129551874Y-92576640D01*
X129339874Y-92324040D01*
X129288915Y-92283149D01*
X129239819Y-92240035D01*
X128954819Y-92075235D01*
X128892705Y-92054104D01*
X128831552Y-92030325D01*
X128502553Y-91972325D01*
X128469512Y-91973047D01*
X128437100Y-91966600D01*
X125469617Y-91966600D01*
X125212721Y-91921305D01*
X125011674Y-91805209D01*
X124862616Y-91627501D01*
X124778312Y-91395879D01*
X124768100Y-91279245D01*
X124768100Y-91223289D01*
X131692813Y-91223289D01*
X131856431Y-91619275D01*
X132159132Y-91922504D01*
X132554832Y-92086813D01*
X132983289Y-92087187D01*
X133067218Y-92052508D01*
X139787355Y-98772645D01*
X139958325Y-98886885D01*
X139991785Y-98893540D01*
X140160000Y-98927000D01*
X153052436Y-98927000D01*
X153086431Y-99009275D01*
X153389132Y-99312504D01*
X153784832Y-99476813D01*
X154213289Y-99477187D01*
X154609275Y-99313569D01*
X154912504Y-99010868D01*
X155076813Y-98615168D01*
X155077187Y-98186711D01*
X154913569Y-97790725D01*
X154610868Y-97487496D01*
X154215168Y-97323187D01*
X153786711Y-97322813D01*
X153390725Y-97486431D01*
X153087496Y-97789132D01*
X153052671Y-97873000D01*
X140378290Y-97873000D01*
X133812674Y-91307384D01*
X133846813Y-91225168D01*
X133847187Y-90796711D01*
X133683569Y-90400725D01*
X133380868Y-90097496D01*
X132985168Y-89933187D01*
X132556711Y-89932813D01*
X132160725Y-90096431D01*
X131857496Y-90399132D01*
X131693187Y-90794832D01*
X131692813Y-91223289D01*
X124768100Y-91223289D01*
X124768100Y-77026972D01*
X125242687Y-78175561D01*
X126149664Y-79084123D01*
X127335294Y-79576439D01*
X128619074Y-79577559D01*
X129805561Y-79087313D01*
X130714123Y-78180336D01*
X130813000Y-77942213D01*
X130813000Y-79268867D01*
X130218825Y-79863042D01*
X129956711Y-79862813D01*
X129560725Y-80026431D01*
X129257496Y-80329132D01*
X129093187Y-80724832D01*
X129092813Y-81153289D01*
X129256431Y-81549275D01*
X129559132Y-81852504D01*
X129954832Y-82016813D01*
X130383289Y-82017187D01*
X130779275Y-81853569D01*
X131082504Y-81550868D01*
X131246813Y-81155168D01*
X131247044Y-80891090D01*
X131955104Y-80183029D01*
X131969395Y-80258979D01*
X132041012Y-80370274D01*
X132150286Y-80444938D01*
X132280000Y-80471206D01*
X132356257Y-80471206D01*
X132417355Y-80562645D01*
X132957326Y-81102616D01*
X132923187Y-81184832D01*
X132922813Y-81613289D01*
X133086431Y-82009275D01*
X133389132Y-82312504D01*
X133784832Y-82476813D01*
X134213289Y-82477187D01*
X134609275Y-82313569D01*
X134912504Y-82010868D01*
X135076813Y-81615168D01*
X135077060Y-81332350D01*
X135907355Y-82162645D01*
X136078325Y-82276885D01*
X136280000Y-82317000D01*
X138431710Y-82317000D01*
X148567356Y-92452647D01*
X148636341Y-92498741D01*
X148738328Y-92566887D01*
X148940002Y-92607002D01*
X165821712Y-92607002D01*
X177863000Y-104648291D01*
X177863000Y-106270000D01*
X177903115Y-106471675D01*
X178017355Y-106642645D01*
X178757355Y-107382645D01*
X178928325Y-107496885D01*
X179130000Y-107537000D01*
X183492436Y-107537000D01*
X183526431Y-107619275D01*
X183829132Y-107922504D01*
X184224832Y-108086813D01*
X184653289Y-108087187D01*
X185049275Y-107923569D01*
X185352504Y-107620868D01*
X185516813Y-107225168D01*
X185517187Y-106796711D01*
X185353569Y-106400725D01*
X185050868Y-106097496D01*
X184655168Y-105933187D01*
X184226711Y-105932813D01*
X183830725Y-106096431D01*
X183527496Y-106399132D01*
X183492671Y-106483000D01*
X179348290Y-106483000D01*
X178917000Y-106051710D01*
X178917000Y-105509862D01*
X179209132Y-105802504D01*
X179604832Y-105966813D01*
X180033289Y-105967187D01*
X180429275Y-105803569D01*
X180732504Y-105500868D01*
X180896813Y-105105168D01*
X180897187Y-104676711D01*
X180733569Y-104280725D01*
X180430868Y-103977496D01*
X180035168Y-103813187D01*
X179606711Y-103812813D01*
X179522782Y-103847492D01*
X166782645Y-91107355D01*
X166611675Y-90993115D01*
X166410000Y-90953000D01*
X149488291Y-90953000D01*
X140248580Y-81713289D01*
X144472813Y-81713289D01*
X144636431Y-82109275D01*
X144939132Y-82412504D01*
X145334832Y-82576813D01*
X145763289Y-82577187D01*
X146159275Y-82413569D01*
X146462504Y-82110868D01*
X146626813Y-81715168D01*
X146627187Y-81286711D01*
X146463569Y-80890725D01*
X146160868Y-80587496D01*
X146077000Y-80552671D01*
X146077000Y-80456718D01*
X146121179Y-80448405D01*
X146232474Y-80376788D01*
X146307138Y-80267514D01*
X146333406Y-80137800D01*
X146333406Y-78357800D01*
X147186594Y-78357800D01*
X147186594Y-80137800D01*
X147209395Y-80258979D01*
X147281012Y-80370274D01*
X147390286Y-80444938D01*
X147520000Y-80471206D01*
X148540000Y-80471206D01*
X148661179Y-80448405D01*
X148772474Y-80376788D01*
X148847138Y-80267514D01*
X148873406Y-80137800D01*
X148873406Y-78357800D01*
X149726594Y-78357800D01*
X149726594Y-80137800D01*
X149749395Y-80258979D01*
X149821012Y-80370274D01*
X149930286Y-80444938D01*
X150060000Y-80471206D01*
X151080000Y-80471206D01*
X151201179Y-80448405D01*
X151312474Y-80376788D01*
X151387138Y-80267514D01*
X151413406Y-80137800D01*
X151413406Y-78357800D01*
X151390605Y-78236621D01*
X151318988Y-78125326D01*
X151242237Y-78072884D01*
X151255945Y-78059200D01*
X151379459Y-77761746D01*
X151379740Y-77439667D01*
X151256746Y-77141998D01*
X151029200Y-76914055D01*
X150731746Y-76790541D01*
X150409667Y-76790260D01*
X150111998Y-76913254D01*
X149884055Y-77140800D01*
X149760541Y-77438254D01*
X149760260Y-77760333D01*
X149883254Y-78058002D01*
X149898419Y-78073193D01*
X149827526Y-78118812D01*
X149752862Y-78228086D01*
X149726594Y-78357800D01*
X148873406Y-78357800D01*
X148850605Y-78236621D01*
X148778988Y-78125326D01*
X148702237Y-78072884D01*
X148715945Y-78059200D01*
X148839459Y-77761746D01*
X148839740Y-77439667D01*
X148716746Y-77141998D01*
X148489200Y-76914055D01*
X148191746Y-76790541D01*
X147869667Y-76790260D01*
X147571998Y-76913254D01*
X147344055Y-77140800D01*
X147220541Y-77438254D01*
X147220260Y-77760333D01*
X147343254Y-78058002D01*
X147358419Y-78073193D01*
X147287526Y-78118812D01*
X147212862Y-78228086D01*
X147186594Y-78357800D01*
X146333406Y-78357800D01*
X146310605Y-78236621D01*
X146238988Y-78125326D01*
X146162237Y-78072884D01*
X146175945Y-78059200D01*
X146299459Y-77761746D01*
X146299740Y-77439667D01*
X146176746Y-77141998D01*
X145949200Y-76914055D01*
X145651746Y-76790541D01*
X145329667Y-76790260D01*
X145031998Y-76913254D01*
X144804055Y-77140800D01*
X144680541Y-77438254D01*
X144680260Y-77760333D01*
X144803254Y-78058002D01*
X144818419Y-78073193D01*
X144747526Y-78118812D01*
X144672862Y-78228086D01*
X144646594Y-78357800D01*
X144646594Y-80137800D01*
X144669395Y-80258979D01*
X144741012Y-80370274D01*
X144850286Y-80444938D01*
X144980000Y-80471206D01*
X145023000Y-80471206D01*
X145023000Y-80552436D01*
X144940725Y-80586431D01*
X144637496Y-80889132D01*
X144473187Y-81284832D01*
X144472813Y-81713289D01*
X140248580Y-81713289D01*
X138706617Y-80171327D01*
X138713406Y-80137800D01*
X138713406Y-78357800D01*
X139566594Y-78357800D01*
X139566594Y-80137800D01*
X139589395Y-80258979D01*
X139661012Y-80370274D01*
X139770286Y-80444938D01*
X139900000Y-80471206D01*
X140920000Y-80471206D01*
X141041179Y-80448405D01*
X141152474Y-80376788D01*
X141227138Y-80267514D01*
X141253406Y-80137800D01*
X141253406Y-79727550D01*
X142013000Y-79727550D01*
X142013000Y-80222736D01*
X142078007Y-80379676D01*
X142198124Y-80499793D01*
X142355065Y-80564800D01*
X142588250Y-80564800D01*
X142695000Y-80458050D01*
X142695000Y-79620800D01*
X143205000Y-79620800D01*
X143205000Y-80458050D01*
X143311750Y-80564800D01*
X143544935Y-80564800D01*
X143701876Y-80499793D01*
X143821993Y-80379676D01*
X143887000Y-80222736D01*
X143887000Y-79727550D01*
X143780250Y-79620800D01*
X143205000Y-79620800D01*
X142695000Y-79620800D01*
X142119750Y-79620800D01*
X142013000Y-79727550D01*
X141253406Y-79727550D01*
X141253406Y-78357800D01*
X141237425Y-78272864D01*
X142013000Y-78272864D01*
X142013000Y-78768050D01*
X142119750Y-78874800D01*
X142695000Y-78874800D01*
X142695000Y-78854800D01*
X143205000Y-78854800D01*
X143205000Y-78874800D01*
X143780250Y-78874800D01*
X143887000Y-78768050D01*
X143887000Y-78272864D01*
X143821993Y-78115924D01*
X143701876Y-77995807D01*
X143668081Y-77981809D01*
X143759459Y-77761746D01*
X143759740Y-77439667D01*
X143636746Y-77141998D01*
X143409200Y-76914055D01*
X143111746Y-76790541D01*
X142789667Y-76790260D01*
X142491998Y-76913254D01*
X142264055Y-77140800D01*
X142140541Y-77438254D01*
X142140260Y-77760333D01*
X142231793Y-77981861D01*
X142198124Y-77995807D01*
X142078007Y-78115924D01*
X142013000Y-78272864D01*
X141237425Y-78272864D01*
X141230605Y-78236621D01*
X141158988Y-78125326D01*
X141082237Y-78072884D01*
X141095945Y-78059200D01*
X141219459Y-77761746D01*
X141219740Y-77439667D01*
X141096746Y-77141998D01*
X140869200Y-76914055D01*
X140571746Y-76790541D01*
X140249667Y-76790260D01*
X139951998Y-76913254D01*
X139724055Y-77140800D01*
X139600541Y-77438254D01*
X139600260Y-77760333D01*
X139723254Y-78058002D01*
X139738419Y-78073193D01*
X139667526Y-78118812D01*
X139592862Y-78228086D01*
X139566594Y-78357800D01*
X138713406Y-78357800D01*
X138690605Y-78236621D01*
X138618988Y-78125326D01*
X138542237Y-78072884D01*
X138555945Y-78059200D01*
X138679459Y-77761746D01*
X138679740Y-77439667D01*
X138556746Y-77141998D01*
X138329200Y-76914055D01*
X138031746Y-76790541D01*
X137709667Y-76790260D01*
X137411998Y-76913254D01*
X137184055Y-77140800D01*
X137060541Y-77438254D01*
X137060260Y-77760333D01*
X137183254Y-78058002D01*
X137198419Y-78073193D01*
X137127526Y-78118812D01*
X137052862Y-78228086D01*
X137026594Y-78357800D01*
X137026594Y-80137800D01*
X137049395Y-80258979D01*
X137121012Y-80370274D01*
X137230286Y-80444938D01*
X137360000Y-80471206D01*
X137515916Y-80471206D01*
X138307710Y-81263000D01*
X136498290Y-81263000D01*
X135857000Y-80621710D01*
X135857000Y-80468007D01*
X135961179Y-80448405D01*
X136072474Y-80376788D01*
X136147138Y-80267514D01*
X136173406Y-80137800D01*
X136173406Y-78357800D01*
X136150605Y-78236621D01*
X136078988Y-78125326D01*
X136002237Y-78072884D01*
X136015945Y-78059200D01*
X136139459Y-77761746D01*
X136139740Y-77439667D01*
X136016746Y-77141998D01*
X135789200Y-76914055D01*
X135491746Y-76790541D01*
X135185544Y-76790274D01*
X135275789Y-76572939D01*
X135276211Y-76089184D01*
X135185429Y-75869474D01*
X135490333Y-75869740D01*
X135788002Y-75746746D01*
X136015945Y-75519200D01*
X136139459Y-75221746D01*
X136139740Y-74899667D01*
X136016746Y-74601998D01*
X136001581Y-74586807D01*
X136072474Y-74541188D01*
X136147138Y-74431914D01*
X136173406Y-74302200D01*
X136173406Y-73891950D01*
X136933000Y-73891950D01*
X136933000Y-74387136D01*
X136998007Y-74544076D01*
X137118124Y-74664193D01*
X137151919Y-74678191D01*
X137060541Y-74898254D01*
X137060260Y-75220333D01*
X137183254Y-75518002D01*
X137410800Y-75745945D01*
X137708254Y-75869459D01*
X138030333Y-75869740D01*
X138328002Y-75746746D01*
X138555945Y-75519200D01*
X138679459Y-75221746D01*
X138679740Y-74899667D01*
X138588207Y-74678139D01*
X138621876Y-74664193D01*
X138741993Y-74544076D01*
X138807000Y-74387136D01*
X138807000Y-73891950D01*
X138700250Y-73785200D01*
X138125000Y-73785200D01*
X138125000Y-73805200D01*
X137615000Y-73805200D01*
X137615000Y-73785200D01*
X137039750Y-73785200D01*
X136933000Y-73891950D01*
X136173406Y-73891950D01*
X136173406Y-72620600D01*
X136933000Y-72620600D01*
X136933000Y-72932450D01*
G36*
X163525000Y-78874800D02*
X163663000Y-78874800D01*
X163663000Y-79620800D01*
X163525000Y-79620800D01*
X163525000Y-80458050D01*
X163631750Y-80564800D01*
X163864935Y-80564800D01*
X163978520Y-80517752D01*
X164013115Y-80691675D01*
X164127355Y-80862645D01*
X165017710Y-81753000D01*
X164180000Y-81753000D01*
X164011785Y-81786460D01*
X163978325Y-81793115D01*
X163807355Y-81907355D01*
X163431710Y-82283000D01*
X162818291Y-82283000D01*
X162417000Y-81881710D01*
X162417000Y-80398669D01*
X162518124Y-80499793D01*
X162675065Y-80564800D01*
X162908250Y-80564800D01*
X163015000Y-80458050D01*
X163015000Y-79620800D01*
X162877000Y-79620800D01*
X162877000Y-78874800D01*
X163015000Y-78874800D01*
X163015000Y-78854800D01*
X163525000Y-78854800D01*
X163525000Y-78874800D01*
X163525000Y-78874800D01*
G37*
X163525000Y-78874800D02*
X163663000Y-78874800D01*
X163663000Y-79620800D01*
X163525000Y-79620800D01*
X163525000Y-80458050D01*
X163631750Y-80564800D01*
X163864935Y-80564800D01*
X163978520Y-80517752D01*
X164013115Y-80691675D01*
X164127355Y-80862645D01*
X165017710Y-81753000D01*
X164180000Y-81753000D01*
X164011785Y-81786460D01*
X163978325Y-81793115D01*
X163807355Y-81907355D01*
X163431710Y-82283000D01*
X162818291Y-82283000D01*
X162417000Y-81881710D01*
X162417000Y-80398669D01*
X162518124Y-80499793D01*
X162675065Y-80564800D01*
X162908250Y-80564800D01*
X163015000Y-80458050D01*
X163015000Y-79620800D01*
X162877000Y-79620800D01*
X162877000Y-78874800D01*
X163015000Y-78874800D01*
X163015000Y-78854800D01*
X163525000Y-78854800D01*
X163525000Y-78874800D01*
M02*
